<?xml version="1.0" encoding="UTF-8" standalone="no"?>
<!-- Created with Inkscape (http://www.inkscape.org/) -->

<svg
   xmlns:dc="http://purl.org/dc/elements/1.1/"
   xmlns:cc="http://creativecommons.org/ns#"
   xmlns:rdf="http://www.w3.org/1999/02/22-rdf-syntax-ns#"
   xmlns:svg="http://www.w3.org/2000/svg"
   xmlns="http://www.w3.org/2000/svg"
   xmlns:sodipodi="http://sodipodi.sourceforge.net/DTD/sodipodi-0.dtd"
   xmlns:inkscape="http://www.inkscape.org/namespaces/inkscape"
   width="100"
   height="100"
   viewBox="0 0 100 100"
   id="svg2"
   version="1.1"
   inkscape:version="0.91 r13725"
   sodipodi:docname="Debbie-Portrait.svg">
  <defs
     id="defs4" />
  <sodipodi:namedview
     id="base"
     pagecolor="#ffffff"
     bordercolor="#666666"
     borderopacity="1.0"
     inkscape:pageopacity="0.0"
     inkscape:pageshadow="2"
     inkscape:zoom="16.671748"
     inkscape:cx="50.705882"
     inkscape:cy="49.529412"
     inkscape:document-units="px"
     inkscape:current-layer="layer2"
     showgrid="false"
     units="px"
     showguides="true"
     inkscape:guide-bbox="true"
     inkscape:window-width="3840"
     inkscape:window-height="2097"
     inkscape:window-x="-8"
     inkscape:window-y="-8"
     inkscape:window-maximized="1">
    <sodipodi:guide
       position="0,125.03479"
       orientation="1,0"
       id="guide4149" />
    <sodipodi:guide
       position="100.03442,122.53146"
       orientation="1,0"
       id="guide4151" />
    <sodipodi:guide
       position="-93.350657,0.093164328"
       orientation="0,1"
       id="guide4153" />
    <sodipodi:guide
       position="-94.841286,99.965324"
       orientation="0,1"
       id="guide4155" />
  </sodipodi:namedview>
  <metadata
     id="metadata7">
    <rdf:RDF>
      <cc:Work
         rdf:about="">
        <dc:format>image/svg+xml</dc:format>
        <dc:type
           rdf:resource="http://purl.org/dc/dcmitype/StillImage" />
        <dc:title></dc:title>
      </cc:Work>
    </rdf:RDF>
  </metadata>
  <g
     inkscape:groupmode="layer"
     id="layer2"
     inkscape:label="Hair1"
     sodipodi:insensitive="true"
     style="display:inline">
    <path
       style="fill:#fdff60;fill-opacity:1;fill-rule:evenodd;stroke:#000000;stroke-width:1px;stroke-linecap:butt;stroke-linejoin:miter;stroke-opacity:1"
       d="m 83.792941,70.249412 c -5.176404,-5.153178 -7.360848,-1.927716 -9.552941,2.45647 -5.376881,-5.452075 -9.904588,-2.585961 -13.783529,0 -4.052046,-0.935454 -8.755409,-1.831707 -12.145883,-0.13647 -3.725083,-2.424265 -9.101186,-1.435874 -11.054117,0.272941 -1.55759,2.948739 -5.061351,0.774259 -6.414118,-0.409412 C 25.386764,77.735705 19.094349,70.668425 18.56,64.790588 c -1.525776,0.904789 -1.701288,1.869579 -2.456471,3.002353 -2.766429,-7.637512 0.955295,-15.274498 0.955295,-22.244706 -2.400455,-0.363554 -4.345783,0.357852 -5.868236,0.409412 9.338217,-14.007325 6.964577,-41.7599999 29.750588,-41.7599999 6.674015,0 11.334474,2.2455323 14.192942,6.5505879 22.797956,-14.3034335 30.701337,11.927012 26.704564,29.248376 -2.046161,8.184646 -3.44359,25.129169 1.954259,30.252801 z"
       id="path4745"
       inkscape:connector-curvature="0"
       sodipodi:nodetypes="ccccccccccsccc" />
  </g>
  <g
     inkscape:groupmode="layer"
     id="layer3"
     inkscape:label="Body"
     style="display:inline"
     sodipodi:insensitive="true">
    <path
       style="fill:#af60ff;fill-opacity:1;fill-rule:evenodd;stroke:#000000;stroke-width:1px;stroke-linecap:butt;stroke-linejoin:miter;stroke-opacity:1"
       d="M 20.874541,101.74682 C 17.508106,87.044686 48.471615,78.074627 62.623623,84.540612 c 2.723558,1.24438 8.434934,0.486887 10.568283,2.620235 1.944732,1.944732 0.78607,12.969813 0.78607,15.808753"
       id="path4754"
       inkscape:connector-curvature="0"
       sodipodi:nodetypes="cssc" />
  </g>
  <g
     inkscape:groupmode="layer"
     id="layer4"
     inkscape:label="Neck"
     sodipodi:insensitive="true"
     style="display:inline">
    <path
       style="fill:#f5e2ab;fill-opacity:1;fill-rule:evenodd;stroke:#000000;stroke-width:1px;stroke-linecap:butt;stroke-linejoin:miter;stroke-opacity:1"
       d="m 38.517459,68.731859 c 3.404521,5.450335 2.625105,11.174801 -1.834164,15.63407 -1.123293,1.123293 -3.114316,1.238437 -4.017695,2.270871 0.333605,7.107687 7.989146,16.09413 13.625224,17.11887 C 52.292053,99.275211 59.825058,91.599507 61.750212,84.540611 53.391418,83.541982 55.25158,73.86125 56.4224,67.421741 50.855254,68.247711 42.975409,66.502883 38.517459,68.731859 Z"
       id="path4757"
       inkscape:connector-curvature="0"
       sodipodi:nodetypes="csccccc" />
    <path
       style="fill:none;fill-rule:evenodd;stroke:#000000;stroke-width:1px;stroke-linecap:butt;stroke-linejoin:miter;stroke-opacity:1"
       d="m 37.644048,83.405177 c 4.32501,17.370933 14.782073,10.29639 19.38974,-1.222777"
       id="path4759"
       inkscape:connector-curvature="0"
       sodipodi:nodetypes="cc" />
    <ellipse
       style="fill:#ff0e00;fill-opacity:1;stroke:#000000;stroke-width:1;stroke-linecap:round;stroke-linejoin:round;stroke-miterlimit:4;stroke-dasharray:none;stroke-opacity:1"
       id="path4761"
       cx="46.072472"
       cy="95.676613"
       rx="1.1791059"
       ry="1.4411294" />
  </g>
  <g
     inkscape:groupmode="layer"
     id="layer5"
     inkscape:label="Face"
     sodipodi:insensitive="true"
     style="display:inline">
    <rect
       style="fill:#f5e2ab;fill-opacity:1;stroke:none;stroke-width:1;stroke-linecap:round;stroke-linejoin:round;stroke-miterlimit:4;stroke-dasharray:none;stroke-opacity:1"
       id="rect4796"
       width="43.294117"
       height="9.8823528"
       x="28.235296"
       y="43.411766" />
    <path
       style="fill:#f5e2ab;fill-opacity:1;fill-rule:evenodd;stroke:#000000;stroke-width:1px;stroke-linecap:round;stroke-linejoin:miter;stroke-opacity:1"
       d="m 30.117647,56 c -4.320745,-2.631925 -9.588265,-11.370579 -2,-13.647059"
       id="path4775"
       inkscape:connector-curvature="0"
       sodipodi:nodetypes="cc" />
    <path
       style="fill:#f5e2ab;fill-opacity:1;fill-rule:evenodd;stroke:#000000;stroke-width:1px;stroke-linecap:round;stroke-linejoin:miter;stroke-opacity:1"
       d="M 68.588235,56.588235 C 76.33832,58.368671 80.044724,43.707164 71.647059,44.470588"
       id="path4788"
       inkscape:connector-curvature="0"
       sodipodi:nodetypes="cc" />
    <path
       style="fill:#f5e2ab;fill-opacity:1;fill-rule:evenodd;stroke:#000000;stroke-width:1px;stroke-linecap:round;stroke-linejoin:miter;stroke-opacity:1"
       d="M 28.823529,44.235294 C 22.247413,21.880628 53.450606,7.3329587 67.176471,21.058824 c 8.60633,8.60633 4.878406,17.278707 4.117647,25.647058"
       id="path4792"
       inkscape:connector-curvature="0"
       sodipodi:nodetypes="csc" />
    <path
       style="fill:#f5e2ab;fill-opacity:1;fill-rule:evenodd;stroke:#000000;stroke-width:1px;stroke-linecap:round;stroke-linejoin:miter;stroke-opacity:1"
       d="m 28.999169,48.757806 c 3.114468,32.51493 31.73776,32.159866 40.477766,3.810825"
       id="path4768"
       inkscape:connector-curvature="0"
       sodipodi:nodetypes="cc" />
  </g>
  <g
     inkscape:groupmode="layer"
     id="layer7"
     inkscape:label="Hair2"
     style="display:inline;opacity:1"
     sodipodi:insensitive="true">
    <path
       style="fill:#fdff60;fill-opacity:1;fill-rule:evenodd;stroke:#000000;stroke-width:1px;stroke-linecap:butt;stroke-linejoin:miter;stroke-opacity:1"
       d="m 28.705882,41.529412 c 2.066023,-5.707965 7.409465,-7.879724 10.705883,-11.647059 0.522771,1.888052 0.839335,3.672805 0.352941,5.294118 3.018817,-3.064928 5.271271,-4.041117 7.294118,-6.352942 1.027929,2.157142 1.529411,3.528171 1.529411,6.235295 0.980236,-3.080692 1.977207,-5.6489 3.058824,-8.352942 2.504592,2.693388 5.540447,3.377303 8,5.529412 l 0.823529,-3.529412 c 2.686077,2.8122 3.914447,5.16273 5.882353,7.411765 0.0062,-1.243405 0.264746,-2.044338 0.470588,-3.176471 1.523548,4.740101 2.73477,8.694156 4.117647,13.764706 C 85.252394,7.3425833 23.134928,10.889114 28.705882,41.529412 Z"
       id="path4799"
       inkscape:connector-curvature="0"
       sodipodi:nodetypes="cccccccccccc" />
    <path
       style="fill:#000000;fill-opacity:1;fill-rule:evenodd;stroke:#000000;stroke-width:1px;stroke-linecap:butt;stroke-linejoin:miter;stroke-opacity:1"
       d="M 72.470588,42.941176 C 77.189395,21.595727 62.562322,9.6618321 40.705882,16.82353 28.741255,19.948145 27.211524,29.613889 28.235294,37.176471 29.154285,30.742493 29.534802,21.880556 46.941176,18.705882 65.879123,16.743314 72.880645,25.069529 72.470588,42.941176 Z"
       id="path4844"
       inkscape:connector-curvature="0"
       sodipodi:nodetypes="ccccc" />
  </g>
  <g
     inkscape:groupmode="layer"
     id="layer8"
     inkscape:label="Features"
     sodipodi:insensitive="true"
     style="display:inline">
    <path
       style="fill:none;fill-rule:evenodd;stroke:#000000;stroke-width:1px;stroke-linecap:round;stroke-linejoin:miter;stroke-opacity:1"
       d="m 66.823529,40.470588 c -0.714206,0 -1.618299,0 -2,0 -1.018295,-2.740724 -4.582724,-3.931616 -7.058823,-2.941176"
       id="path4808"
       inkscape:connector-curvature="0" />
    <path
       style="fill:none;fill-rule:evenodd;stroke:#000000;stroke-width:1px;stroke-linecap:round;stroke-linejoin:miter;stroke-opacity:1"
       d="m 44.588235,37.058824 c -3.400273,-0.09432 -4.772502,1.622355 -6.235294,3.294117 -0.359954,-0.677241 -0.89056,-0.64768 -1.294117,-0.941176"
       id="path4810"
       inkscape:connector-curvature="0" />
    <path
       style="fill:none;fill-rule:evenodd;stroke:#000000;stroke-width:1px;stroke-linecap:round;stroke-linejoin:miter;stroke-opacity:1"
       d="M 48.352941,56 C 49.563916,58.271501 51.120926,57.671552 52,56.352941"
       id="path4812"
       inkscape:connector-curvature="0" />
    <ellipse
       style="fill:#000000;fill-opacity:1;stroke:none;stroke-width:1;stroke-linecap:round;stroke-linejoin:round;stroke-miterlimit:4;stroke-dasharray:none;stroke-opacity:1"
       id="path4814"
       cx="43.235294"
       cy="43.235294"
       rx="1"
       ry="1.9411765" />
    <ellipse
       style="fill:#000000;fill-opacity:1;stroke:none;stroke-width:1;stroke-linecap:round;stroke-linejoin:round;stroke-miterlimit:4;stroke-dasharray:none;stroke-opacity:1"
       id="path4814-6"
       cx="64.403419"
       cy="36.404949"
       rx="1"
       ry="1.9411765"
       transform="matrix(0.9929849,0.11824122,-0.11824122,0.9929849,0,0)" />
  </g>
  <g
     inkscape:groupmode="layer"
     id="layer9"
     inkscape:label="Mouth"
     style="display:inline"
     sodipodi:insensitive="true">
    <path
       style="fill:#ffffff;fill-opacity:1;fill-rule:evenodd;stroke:#000000;stroke-width:1px;stroke-linecap:butt;stroke-linejoin:miter;stroke-opacity:1"
       d="m 43.411765,62.705882 c 4.549366,1.698096 10.491484,-0.495778 14.235294,-1.17647 -2.806014,6.66135 -11.435788,8.175241 -14.235294,1.17647 z"
       id="path4832"
       inkscape:connector-curvature="0" />
    <path
       style="fill:#000000;fill-opacity:1;fill-rule:evenodd;stroke:#000000;stroke-width:1px;stroke-linecap:butt;stroke-linejoin:miter;stroke-opacity:1"
       d="m 55.529412,62.352941 c 0.301015,0.777861 0.134183,0.800218 0.352941,1.529412 0.671172,-0.887268 0.748533,-1.047802 0.941177,-1.529412 -0.701355,0.522646 -0.533041,-0.228323 -1.294118,0 z"
       id="path4834"
       inkscape:connector-curvature="0"
       sodipodi:nodetypes="cccc" />
    <path
       style="fill:none;fill-rule:evenodd;stroke:#000000;stroke-width:1px;stroke-linecap:butt;stroke-linejoin:miter;stroke-opacity:1"
       d="m 44.352941,63.294118 c 0.601229,0.385397 0.560386,0.240165 0.82353,0.352941 -0.481111,0.452251 -0.525092,0.437576 -0.705883,0.588235 0.148224,-0.05067 -0.11474,-0.917919 -0.117647,-0.941176 z"
       id="path4836"
       inkscape:connector-curvature="0" />
  </g>
</svg>
