<?xml version="1.0" encoding="UTF-8" standalone="no"?>
<!-- Created with Inkscape (http://www.inkscape.org/) -->

<svg
   xmlns:dc="http://purl.org/dc/elements/1.1/"
   xmlns:cc="http://creativecommons.org/ns#"
   xmlns:rdf="http://www.w3.org/1999/02/22-rdf-syntax-ns#"
   xmlns:svg="http://www.w3.org/2000/svg"
   xmlns="http://www.w3.org/2000/svg"
   xmlns:sodipodi="http://sodipodi.sourceforge.net/DTD/sodipodi-0.dtd"
   xmlns:inkscape="http://www.inkscape.org/namespaces/inkscape"
   width="100"
   height="100"
   viewBox="0 0 100 100"
   id="svg2"
   version="1.1"
   inkscape:version="0.91 r13725"
   sodipodi:docname="Fiona-Portrait.svg">
  <defs
     id="defs4" />
  <sodipodi:namedview
     id="base"
     pagecolor="#ffffff"
     bordercolor="#666666"
     borderopacity="1.0"
     inkscape:pageopacity="0.0"
     inkscape:pageshadow="2"
     inkscape:zoom="8.5256369"
     inkscape:cx="45.320274"
     inkscape:cy="46.661983"
     inkscape:document-units="px"
     inkscape:current-layer="layer4"
     showgrid="false"
     units="px"
     showguides="true"
     inkscape:guide-bbox="true"
     inkscape:window-width="1920"
     inkscape:window-height="1017"
     inkscape:window-x="3832"
     inkscape:window-y="461"
     inkscape:window-maximized="1">
    <sodipodi:guide
       position="0,125.03479"
       orientation="1,0"
       id="guide4149" />
    <sodipodi:guide
       position="100.03442,122.53146"
       orientation="1,0"
       id="guide4151" />
    <sodipodi:guide
       position="-93.350657,0.093164328"
       orientation="0,1"
       id="guide4153" />
    <sodipodi:guide
       position="-94.841286,99.965324"
       orientation="0,1"
       id="guide4155" />
  </sodipodi:namedview>
  <metadata
     id="metadata7">
    <rdf:RDF>
      <cc:Work
         rdf:about="">
        <dc:format>image/svg+xml</dc:format>
        <dc:type
           rdf:resource="http://purl.org/dc/dcmitype/StillImage" />
        <dc:title />
      </cc:Work>
    </rdf:RDF>
  </metadata>
  <g
     inkscape:groupmode="layer"
     id="layer2"
     inkscape:label="Hair1"
     style="display:inline;opacity:1"
     sodipodi:insensitive="true">
    <path
       style="fill:#b4622a;fill-opacity:1;fill-rule:evenodd;stroke:#000000;stroke-width:1px;stroke-linecap:round;stroke-linejoin:miter;stroke-opacity:1"
       d="M 83.344582,67.937578 C 81.129044,65.445098 78.292008,62.876862 77.144666,59.434837 71.368902,42.107543 93.978917,23.590469 75.284692,9.5697998 72.96069,7.8267989 69.269513,5.7774748 66.250529,6.3812717 64.039054,6.8235667 61.066999,6.7970059 59.607762,8.861238 53.886132,2.423456 39.739925,2.8391429 32.135594,7.6161222 18.205308,6.4126021 4.2130934,19.33255 7.8827501,37.557991 c 1.2455611,6.18611 5.1772049,11.689924 3.0113879,18.289751 1.323551,-0.523577 2.564896,-1.596635 3.631379,-2.0814 0.05052,8.082432 1.898396,18.347383 6.554197,25.331085 1.20383,1.805746 3.254095,2.7848 3.631379,5.048503 0.505448,3.032686 -0.744055,5.775138 -1.239983,8.502741 1.904536,-2.157604 4.096715,-3.964545 4.959932,-6.554196 -0.06496,1.222199 0.160889,2.3012 0.265711,3.454238 2.19884,-1.390002 5.490317,-2.213972 7.439899,-2.745677 1.45662,-0.763168 2.765771,-0.667962 4.428511,-0.885702 2.554242,-0.334484 29.047823,0.128038 28.076762,-1.328553 1.091869,-0.837148 1.928744,-2.001445 3.011387,-2.834247 8.117105,-6.243927 5.047757,-11.690524 9.211304,-15.854071"
       id="path4192"
       inkscape:connector-curvature="0"
       sodipodi:nodetypes="csssccsccssccccscsc" />
  </g>
  <g
     inkscape:groupmode="layer"
     id="layer6"
     inkscape:label="Body"
     sodipodi:insensitive="true"
     style="display:inline">
    <path
       style="fill:#309bff;fill-opacity:1;fill-rule:evenodd;stroke:#000000;stroke-width:1px;stroke-linecap:butt;stroke-linejoin:miter;stroke-opacity:1"
       d="M 33.176471,103.17647 C 33.058302,97.900206 33.439599,91.126501 35.764706,87.647058 38.134399,84.100895 56.797112,77.045615 62.705882,80 c 4.943918,2.471959 6.235294,7.034086 6.235294,13.647059 0,1.834353 -0.823529,11.171231 -0.823529,6.259777"
       id="path4280"
       inkscape:connector-curvature="0"
       sodipodi:nodetypes="csssc" />
  </g>
  <g
     inkscape:groupmode="layer"
     id="layer5"
     inkscape:label="Neck"
     style="display:inline"
     sodipodi:insensitive="true">
    <path
       style="fill:#ffd091;fill-opacity:1;fill-rule:evenodd;stroke:#000000;stroke-width:1px;stroke-linecap:butt;stroke-linejoin:miter;stroke-opacity:1"
       d="m 46.588235,71.647059 c 5.568817,6.657787 0.949414,8.811174 -1.647059,12.705882 3.613807,6.870031 16.743983,3.124989 16.117648,-3.764706 -2.805391,-4.694149 -0.606007,-9.661454 1.411764,-14.705882 -5.016007,0.49035 -12.361021,2.243375 -15.882353,5.764706 z"
       id="path4271"
       inkscape:connector-curvature="0" />
  </g>
  <g
     inkscape:groupmode="layer"
     id="layer4"
     inkscape:label="Face"
     style="display:inline;opacity:1"
     sodipodi:insensitive="true">
    <path
       style="fill:#ffd091;fill-opacity:1;fill-rule:evenodd;stroke:#000000;stroke-width:1px;stroke-linecap:round;stroke-linejoin:miter;stroke-opacity:1"
       d="m 35.640027,27.825505 c 7.713983,-5.399788 19.435783,-3.164208 27.041975,-8.255874 2.717747,-0.88345 5.080503,0.872997 6.182491,3.29737 1.760714,3.873571 0.01178,10.250076 0.354281,14.702657 0.502774,6.536061 2.149839,13.140593 3.454239,19.66259 0.307948,1.539742 0.507373,5.679901 -0.619992,6.997048 C 63.691885,73.997951 58.87803,70.844427 47.076217,73.79488 42.173865,75.020468 35.877271,74.977945 33.39308,70.412047 30.544321,61.968856 27.997852,33.175028 35.640027,27.825505 Z"
       id="path4260"
       inkscape:connector-curvature="0"
       sodipodi:nodetypes="scssssscs" />
    <path
       style="fill:#ffd091;fill-opacity:1;fill-rule:evenodd;stroke:#000000;stroke-width:1px;stroke-linecap:round;stroke-linejoin:miter;stroke-opacity:1"
       d="m 69.21715,36.016001 c 1.492699,-1.495594 3.655478,-3.061863 5.651804,-1.814159 5.55268,3.470425 -1.51901,7.611097 -2.302587,10.745404 -0.578818,2.315272 1.395753,3.593308 -1.186181,4.884275"
       id="path4262"
       inkscape:connector-curvature="0" />
  </g>
  <g
     inkscape:groupmode="layer"
     id="layer3"
     inkscape:label="Hair2"
     style="display:inline;opacity:1"
     sodipodi:insensitive="true">
    <path
       style="fill:#b4622a;fill-opacity:1;fill-rule:evenodd;stroke:#000000;stroke-width:1px;stroke-linecap:round;stroke-linejoin:miter;stroke-opacity:1"
       d="M 60.037907,8.8980781 C 50.032005,0.95896814 32.262927,2.8341191 23.983312,13.183637 c -5.1846,6.480751 -0.608283,15.410967 -10.694058,18.140712 1.886479,1.840306 4.290988,3.59797 7.992294,3.240501 -0.302343,4.39716 -3.45168,7.671672 -6.987325,10.294658 2.348389,2.892071 7.640234,-0.09354 9.642506,-1.07139 2.657037,8.344383 2.578191,28.396126 11.299489,31.741684 0.365517,-3.198047 -1.488068,-5.129942 -2.141068,-8.394942 -2.482865,-12.414325 1.8751,-25.746666 10.008436,-34.852383 -1.397502,3.118787 -2.548911,7.676153 -1.505694,10.849852 2.199741,-9.727635 8.842494,-15.916209 16.474062,-20.548292 0.715737,4.423689 2.105368,9.968955 2.479966,14.702657 3.62091,-8.829782 3.691536,-17.327187 0.974273,-24.799663"
       id="path4178"
       inkscape:connector-curvature="0"
       sodipodi:nodetypes="cscccccsccccc" />
  </g>
  <g
     inkscape:groupmode="layer"
     id="layer7"
     inkscape:label="Features"
     style="display:inline"
     sodipodi:insensitive="true">
    <path
       style="fill:none;fill-rule:evenodd;stroke:#000000;stroke-width:1px;stroke-linecap:butt;stroke-linejoin:miter;stroke-opacity:1"
       d="M 61.176471,31.411765 C 60.644173,28.552341 57.695882,28.19877 54.705882,28.470588"
       id="path4292"
       inkscape:connector-curvature="0" />
    <path
       style="fill:none;fill-rule:evenodd;stroke:#000000;stroke-width:1px;stroke-linecap:butt;stroke-linejoin:miter;stroke-opacity:1"
       d="m 37.529412,35.294118 c -0.128548,-2.763906 0.601441,-4.07455 2.705882,-4.705883"
       id="path4294"
       inkscape:connector-curvature="0" />
    <ellipse
       style="fill:#000000;fill-opacity:1;stroke:none;stroke-width:1;stroke-linecap:round;stroke-linejoin:round;stroke-miterlimit:4;stroke-dasharray:none;stroke-opacity:1"
       id="path4300"
       cx="40.53994"
       cy="54.64843"
       rx="0.82352942"
       ry="1.5294118"
       transform="matrix(0.93491947,-0.35485994,0.35485994,0.93491947,0,0)" />
    <ellipse
       style="fill:#000000;fill-opacity:1;stroke:none;stroke-width:1;stroke-linecap:round;stroke-linejoin:round;stroke-miterlimit:4;stroke-dasharray:none;stroke-opacity:1"
       id="path4300-2"
       cx="26.325886"
       cy="52.137821"
       rx="0.82352942"
       ry="1.5294118"
       transform="matrix(0.94444066,-0.32868199,0.32868199,0.94444066,0,0)" />
    <ellipse
       style="fill:#003eff;fill-opacity:0.47682118;stroke:#000000;stroke-width:0.74366891;stroke-linecap:round;stroke-linejoin:round;stroke-miterlimit:4;stroke-dasharray:none;stroke-opacity:1"
       id="path4317"
       cx="29.113914"
       cy="55.682388"
       rx="4.0407109"
       ry="2.0530179"
       transform="matrix(0.97477429,-0.22319292,0.25834397,0.966053,0,0)"
       inkscape:transform-center-x="-0.10275025"
       inkscape:transform-center-y="-0.095078374" />
    <ellipse
       style="display:inline;fill:#003eff;fill-opacity:0.47682118;stroke:#000000;stroke-width:0.79950255;stroke-linecap:round;stroke-linejoin:round;stroke-miterlimit:4;stroke-dasharray:none;stroke-opacity:1"
       id="path4317-0"
       cx="45.809528"
       cy="56.356678"
       rx="4.368156"
       ry="2.1949914"
       transform="matrix(0.97537497,-0.2205531,0.26137625,0.965237,0,0)"
       inkscape:transform-center-x="-0.11114675"
       inkscape:transform-center-y="-0.10156695" />
    <path
       style="fill:none;fill-rule:evenodd;stroke:#000000;stroke-width:1px;stroke-linecap:butt;stroke-linejoin:miter;stroke-opacity:1"
       d="m 51.411765,43.882353 c -1.813999,-1.335396 -2.260221,0.490036 -2.470589,1.647059"
       id="path4338"
       inkscape:connector-curvature="0" />
    <path
       style="fill:none;fill-rule:evenodd;stroke:#000000;stroke-width:1px;stroke-linecap:butt;stroke-linejoin:miter;stroke-opacity:1"
       d="m 48.941176,51.764706 c -0.128557,2.826945 1.433695,2.143005 2.588236,0.823529"
       id="path4340"
       inkscape:connector-curvature="0" />
  </g>
  <g
     inkscape:groupmode="layer"
     id="layer8"
     inkscape:label="Mouth"
     sodipodi:insensitive="true">
    <path
       inkscape:connector-curvature="0"
       id="path4357"
       d="m 44,61.176471 c 7.484728,0.131202 13.845708,-1.103181 16.470588,-6.352942 4.003871,4.763987 5.016217,9.908732 3.293764,15.650243 -5.702491,1.725327 -12.011614,3.761522 -18.352587,3.761522 C 43.20348,70.860583 45.218168,65.237028 44,61.176471 Z"
       style="fill:#000000;fill-opacity:1;fill-rule:evenodd;stroke:#000000;stroke-width:1px;stroke-linecap:butt;stroke-linejoin:miter;stroke-opacity:1"
       sodipodi:nodetypes="ccccc" />
    <path
       style="fill:#ff0000;fill-opacity:1;fill-rule:evenodd;stroke:none;stroke-width:1px;stroke-linecap:butt;stroke-linejoin:miter;stroke-opacity:1"
       d="m 47.764706,74 c -1.543384,-4.355481 2.632706,-7.229271 6.588235,-5.647059 4.011082,-4.327178 10.315205,-2.736988 9.410704,2.237771 C 57.844866,72.401553 54.533023,73.581269 47.764706,74 Z"
       id="path4351"
       inkscape:connector-curvature="0"
       sodipodi:nodetypes="cccc" />
    <path
       style="fill:#ffffff;fill-opacity:1;fill-rule:evenodd;stroke:none;stroke-width:1px;stroke-linecap:butt;stroke-linejoin:miter;stroke-opacity:1"
       d="M 44.823529,65.294118 C 53.141907,66.748189 59.557238,63.428849 62.705882,58.705882 62.018933,57.174285 60.933003,56.046563 60.352941,55.176471 56.98304,60.532985 50.230067,61.73167 44,61.058824 c 0.37714,1.58745 0.82353,2.454146 0.823529,4.235294 z"
       id="path4355"
       inkscape:connector-curvature="0"
       sodipodi:nodetypes="ccccc" />
    <path
       style="fill:#000000;fill-opacity:0;fill-rule:evenodd;stroke:#000000;stroke-width:1px;stroke-linecap:butt;stroke-linejoin:miter;stroke-opacity:1"
       d="m 44,61.176471 c 7.484728,0.131202 13.845708,-1.103181 16.470588,-6.352942 4.003871,4.763987 5.133511,10.026026 3.411058,15.767537 -5.702491,1.725327 -12.128908,3.644228 -18.469881,3.644228 C 43.20348,70.860583 45.218168,65.237028 44,61.176471 Z"
       id="path4343"
       inkscape:connector-curvature="0"
       sodipodi:nodetypes="ccccc" />
  </g>
</svg>
