<?xml version="1.0" encoding="UTF-8" standalone="no"?>
<!-- Created with Inkscape (http://www.inkscape.org/) -->

<svg
   xmlns:dc="http://purl.org/dc/elements/1.1/"
   xmlns:cc="http://creativecommons.org/ns#"
   xmlns:rdf="http://www.w3.org/1999/02/22-rdf-syntax-ns#"
   xmlns:svg="http://www.w3.org/2000/svg"
   xmlns="http://www.w3.org/2000/svg"
   xmlns:sodipodi="http://sodipodi.sourceforge.net/DTD/sodipodi-0.dtd"
   xmlns:inkscape="http://www.inkscape.org/namespaces/inkscape"
   width="100"
   height="100"
   viewBox="0 0 100 100"
   id="svg2"
   version="1.1"
   inkscape:version="0.91 r13725"
   sodipodi:docname="Noah-Portrait.svg">
  <defs
     id="defs4" />
  <sodipodi:namedview
     id="base"
     pagecolor="#ffffff"
     bordercolor="#666666"
     borderopacity="1.0"
     inkscape:pageopacity="0.0"
     inkscape:pageshadow="2"
     inkscape:zoom="7.5221239"
     inkscape:cx="51.5"
     inkscape:cy="48.5"
     inkscape:document-units="px"
     inkscape:current-layer="layer17"
     showgrid="false"
     units="px"
     showguides="true"
     inkscape:guide-bbox="true"
     inkscape:window-width="1920"
     inkscape:window-height="1017"
     inkscape:window-x="3832"
     inkscape:window-y="461"
     inkscape:window-maximized="1">
    <sodipodi:guide
       position="0,125.03479"
       orientation="1,0"
       id="guide4149" />
    <sodipodi:guide
       position="100.03442,122.53146"
       orientation="1,0"
       id="guide4151" />
    <sodipodi:guide
       position="-93.350657,0.093164328"
       orientation="0,1"
       id="guide4153" />
    <sodipodi:guide
       position="-94.841286,99.965324"
       orientation="0,1"
       id="guide4155" />
  </sodipodi:namedview>
  <metadata
     id="metadata7">
    <rdf:RDF>
      <cc:Work
         rdf:about="">
        <dc:format>image/svg+xml</dc:format>
        <dc:type
           rdf:resource="http://purl.org/dc/dcmitype/StillImage" />
        <dc:title></dc:title>
      </cc:Work>
    </rdf:RDF>
  </metadata>
  <g
     inkscape:groupmode="layer"
     id="layer17"
     inkscape:label="Body"
     sodipodi:insensitive="true"
     style="display:inline">
    <path
       style="fill:#ffffff;fill-opacity:1;fill-rule:evenodd;stroke:#000000;stroke-width:1px;stroke-linecap:butt;stroke-linejoin:miter;stroke-opacity:1"
       d="M 100.03442,99.906836 C 95.476326,95.289002 92.803298,87.268378 86.411765,84.711765 82.478058,83.138282 75.65898,83.047425 71.256471,83.781176 52.555402,86.898021 32.947474,85.298374 25.524706,103.85529"
       id="path6070"
       inkscape:connector-curvature="0" />
  </g>
  <g
     inkscape:groupmode="layer"
     id="layer18"
     inkscape:label="Neck"
     style="display:inline"
     sodipodi:insensitive="true">
    <path
       style="fill:#fff0c0;fill-opacity:1;fill-rule:evenodd;stroke:#000000;stroke-width:1px;stroke-linecap:butt;stroke-linejoin:miter;stroke-opacity:1"
       d="m 72.984706,65.834118 c 0.662127,8.145649 -4.652941,13.167551 -4.652941,20.738823 -6.492035,4.335594 -15.976223,8.023338 -22.467059,9.970588 3.068469,-5.366558 4.795106,-13.723688 6.78,-20.34"
       id="path6077"
       inkscape:connector-curvature="0" />
    <ellipse
       style="display:inline;opacity:1;fill:#000000;fill-opacity:1;stroke:none;stroke-width:0.80000001;stroke-linecap:round;stroke-linejoin:round;stroke-miterlimit:4;stroke-dasharray:none;stroke-opacity:1"
       id="path6079"
       cx="59.95647"
       cy="79.527061"
       rx="0.46529412"
       ry="0.53176463" />
    <ellipse
       style="display:inline;opacity:1;fill:#000000;fill-opacity:1;stroke:none;stroke-width:0.80000001;stroke-linecap:round;stroke-linejoin:round;stroke-miterlimit:4;stroke-dasharray:none;stroke-opacity:1"
       id="path6079-4"
       cx="57.829411"
       cy="83.781174"
       rx="0.46529412"
       ry="0.53176463" />
    <ellipse
       style="display:inline;opacity:1;fill:#000000;fill-opacity:1;stroke:none;stroke-width:0.80000001;stroke-linecap:round;stroke-linejoin:round;stroke-miterlimit:4;stroke-dasharray:none;stroke-opacity:1"
       id="path6079-48"
       cx="53.575294"
       cy="87.769409"
       rx="0.46529412"
       ry="0.53176463" />
    <ellipse
       style="display:inline;opacity:1;fill:#000000;fill-opacity:1;stroke:none;stroke-width:0.80000001;stroke-linecap:round;stroke-linejoin:round;stroke-miterlimit:4;stroke-dasharray:none;stroke-opacity:1"
       id="path6079-9"
       cx="66.736473"
       cy="82.850586"
       rx="0.46529412"
       ry="0.53176463" />
    <ellipse
       style="display:inline;opacity:1;fill:#000000;fill-opacity:1;stroke:none;stroke-width:0.80000001;stroke-linecap:round;stroke-linejoin:round;stroke-miterlimit:4;stroke-dasharray:none;stroke-opacity:1"
       id="path6079-1"
       cx="70.458824"
       cy="71.284706"
       rx="0.46529412"
       ry="0.53176463" />
    <ellipse
       style="display:inline;opacity:1;fill:#000000;fill-opacity:1;stroke:none;stroke-width:0.80000001;stroke-linecap:round;stroke-linejoin:round;stroke-miterlimit:4;stroke-dasharray:none;stroke-opacity:1"
       id="path6079-0"
       cx="65.008232"
       cy="74.342354"
       rx="0.46529412"
       ry="0.53176463" />
    <ellipse
       style="display:inline;opacity:1;fill:#000000;fill-opacity:1;stroke:none;stroke-width:0.80000001;stroke-linecap:round;stroke-linejoin:round;stroke-miterlimit:4;stroke-dasharray:none;stroke-opacity:1"
       id="path6079-3"
       cx="61.817646"
       cy="81.388237"
       rx="0.46529412"
       ry="0.53176463" />
    <ellipse
       style="display:inline;opacity:1;fill:#000000;fill-opacity:1;stroke:none;stroke-width:0.80000001;stroke-linecap:round;stroke-linejoin:round;stroke-miterlimit:4;stroke-dasharray:none;stroke-opacity:1"
       id="path6079-5"
       cx="58.228237"
       cy="87.902351"
       rx="0.46529412"
       ry="0.53176463" />
    <ellipse
       style="display:inline;opacity:1;fill:#000000;fill-opacity:1;stroke:none;stroke-width:0.80000001;stroke-linecap:round;stroke-linejoin:round;stroke-miterlimit:4;stroke-dasharray:none;stroke-opacity:1"
       id="path6079-05"
       cx="54.240002"
       cy="76.735291"
       rx="0.46529412"
       ry="0.53176463" />
    <ellipse
       style="display:inline;opacity:1;fill:#000000;fill-opacity:1;stroke:none;stroke-width:0.80000001;stroke-linecap:round;stroke-linejoin:round;stroke-miterlimit:4;stroke-dasharray:none;stroke-opacity:1"
       id="path6079-52"
       cx="58.228237"
       cy="74.608238"
       rx="0.46529412"
       ry="0.53176463" />
    <ellipse
       style="display:inline;opacity:1;fill:#000000;fill-opacity:1;stroke:none;stroke-width:0.80000001;stroke-linecap:round;stroke-linejoin:round;stroke-miterlimit:4;stroke-dasharray:none;stroke-opacity:1"
       id="path6079-6"
       cx="56.367058"
       cy="82.05294"
       rx="0.46529412"
       ry="0.53176463" />
    <ellipse
       style="display:inline;opacity:1;fill:#000000;fill-opacity:1;stroke:none;stroke-width:0.80000001;stroke-linecap:round;stroke-linejoin:round;stroke-miterlimit:4;stroke-dasharray:none;stroke-opacity:1"
       id="path6079-8"
       cx="63.678825"
       cy="85.908234"
       rx="0.46529412"
       ry="0.53176463" />
    <ellipse
       style="display:inline;opacity:1;fill:#000000;fill-opacity:1;stroke:none;stroke-width:0.80000001;stroke-linecap:round;stroke-linejoin:round;stroke-miterlimit:4;stroke-dasharray:none;stroke-opacity:1"
       id="path6079-02"
       cx="66.470589"
       cy="79.527061"
       rx="0.46529412"
       ry="0.53176463" />
  </g>
  <g
     inkscape:groupmode="layer"
     id="layer19"
     inkscape:label="Face"
     style="display:inline;opacity:1"
     sodipodi:insensitive="true">
    <path
       style="fill:#fff0c0;fill-opacity:1;fill-rule:evenodd;stroke:#000000;stroke-width:1px;stroke-linecap:butt;stroke-linejoin:miter;stroke-opacity:1"
       d="m 38.818824,39.777647 c 1.423769,13.970043 -4.613785,15.926837 -12.230589,21.004706 0.556137,3.598634 6.356174,2.523609 9.305883,2.791765 0.389571,2.589934 -0.742851,3.761265 -1.329412,5.71647 0.928321,0.985467 2.076269,0.938057 3.45647,1.06353 -2.005592,1.159962 -1.656132,3.481899 -0.398823,4.918823 -7.040219,5.123628 1.197945,17.479553 7.444706,8.109412 C 59.631782,77.965321 73.415655,72.733216 78.834118,59.187059 83.573253,45.684033 77.241153,39.779977 68.730588,31.269412 64.083094,26.621917 39.788009,34.447121 38.818824,39.777647 Z"
       id="path6169"
       inkscape:connector-curvature="0" />
    <ellipse
       style="display:inline;opacity:1;fill:#000000;fill-opacity:1;stroke:none;stroke-width:0.80000001;stroke-linecap:round;stroke-linejoin:round;stroke-miterlimit:4;stroke-dasharray:none;stroke-opacity:1"
       id="path6079-3-1"
       cx="64.609413"
       cy="66.232941"
       rx="0.46529412"
       ry="0.53176463" />
    <ellipse
       style="display:inline;opacity:1;fill:#000000;fill-opacity:1;stroke:none;stroke-width:0.80000001;stroke-linecap:round;stroke-linejoin:round;stroke-miterlimit:4;stroke-dasharray:none;stroke-opacity:1"
       id="path6079-3-4"
       cx="60.089413"
       cy="71.550591"
       rx="0.46529412"
       ry="0.53176463" />
    <ellipse
       style="display:inline;opacity:1;fill:#000000;fill-opacity:1;stroke:none;stroke-width:0.80000001;stroke-linecap:round;stroke-linejoin:round;stroke-miterlimit:4;stroke-dasharray:none;stroke-opacity:1"
       id="path6079-3-0"
       cx="54.505882"
       cy="75.937645"
       rx="0.46529412"
       ry="0.53176463" />
    <ellipse
       style="display:inline;opacity:1;fill:#000000;fill-opacity:1;stroke:none;stroke-width:0.80000001;stroke-linecap:round;stroke-linejoin:round;stroke-miterlimit:4;stroke-dasharray:none;stroke-opacity:1"
       id="path6079-3-11"
       cx="47.725883"
       cy="76.868233"
       rx="0.46529412"
       ry="0.53176463" />
    <ellipse
       style="display:inline;opacity:1;fill:#000000;fill-opacity:1;stroke:none;stroke-width:0.80000001;stroke-linecap:round;stroke-linejoin:round;stroke-miterlimit:4;stroke-dasharray:none;stroke-opacity:1"
       id="path6079-3-14"
       cx="43.205883"
       cy="79.92588"
       rx="0.46529412"
       ry="0.53176463" />
    <ellipse
       style="display:inline;opacity:1;fill:#000000;fill-opacity:1;stroke:none;stroke-width:0.80000001;stroke-linecap:round;stroke-linejoin:round;stroke-miterlimit:4;stroke-dasharray:none;stroke-opacity:1"
       id="path6079-3-19"
       cx="40.148235"
       cy="82.185883"
       rx="0.46529412"
       ry="0.53176463" />
    <ellipse
       style="display:inline;opacity:1;fill:#000000;fill-opacity:1;stroke:none;stroke-width:0.80000001;stroke-linecap:round;stroke-linejoin:round;stroke-miterlimit:4;stroke-dasharray:none;stroke-opacity:1"
       id="path6079-3-15"
       cx="37.22353"
       cy="80.856468"
       rx="0.46529412"
       ry="0.53176463" />
    <ellipse
       style="display:inline;opacity:1;fill:#000000;fill-opacity:1;stroke:none;stroke-width:0.80000001;stroke-linecap:round;stroke-linejoin:round;stroke-miterlimit:4;stroke-dasharray:none;stroke-opacity:1"
       id="path6079-3-5"
       cx="38.818825"
       cy="79.128235"
       rx="0.46529412"
       ry="0.53176463" />
    <ellipse
       style="display:inline;opacity:1;fill:#000000;fill-opacity:1;stroke:none;stroke-width:0.80000001;stroke-linecap:round;stroke-linejoin:round;stroke-miterlimit:4;stroke-dasharray:none;stroke-opacity:1"
       id="path6079-3-9"
       cx="42.009411"
       cy="81.919998"
       rx="0.46529412"
       ry="0.53176463" />
    <ellipse
       style="display:inline;opacity:1;fill:#000000;fill-opacity:1;stroke:none;stroke-width:0.80000001;stroke-linecap:round;stroke-linejoin:round;stroke-miterlimit:4;stroke-dasharray:none;stroke-opacity:1"
       id="path6079-3-8"
       cx="43.205883"
       cy="83.515297"
       rx="0.46529412"
       ry="0.53176463" />
    <ellipse
       style="display:inline;opacity:1;fill:#000000;fill-opacity:1;stroke:none;stroke-width:0.80000001;stroke-linecap:round;stroke-linejoin:round;stroke-miterlimit:4;stroke-dasharray:none;stroke-opacity:1"
       id="path6079-3-91"
       cx="44.934116"
       cy="77.931763"
       rx="0.46529412"
       ry="0.53176463" />
    <ellipse
       style="display:inline;opacity:1;fill:#000000;fill-opacity:1;stroke:none;stroke-width:0.80000001;stroke-linecap:round;stroke-linejoin:round;stroke-miterlimit:4;stroke-dasharray:none;stroke-opacity:1"
       id="path6079-3-3"
       cx="45.200001"
       cy="76.203529"
       rx="0.46529412"
       ry="0.53176463" />
    <ellipse
       style="display:inline;opacity:1;fill:#000000;fill-opacity:1;stroke:none;stroke-width:0.80000001;stroke-linecap:round;stroke-linejoin:round;stroke-miterlimit:4;stroke-dasharray:none;stroke-opacity:1"
       id="path6079-3-7"
       cx="52.511765"
       cy="78.064705"
       rx="0.46529412"
       ry="0.53176463" />
    <ellipse
       style="display:inline;opacity:1;fill:#000000;fill-opacity:1;stroke:none;stroke-width:0.80000001;stroke-linecap:round;stroke-linejoin:round;stroke-miterlimit:4;stroke-dasharray:none;stroke-opacity:1"
       id="path6079-3-6"
       cx="53.442352"
       cy="76.070587"
       rx="0.46529412"
       ry="0.53176463" />
    <ellipse
       style="display:inline;opacity:1;fill:#000000;fill-opacity:1;stroke:none;stroke-width:0.80000001;stroke-linecap:round;stroke-linejoin:round;stroke-miterlimit:4;stroke-dasharray:none;stroke-opacity:1"
       id="path6079-3-67"
       cx="56.765881"
       cy="72.481178"
       rx="0.46529412"
       ry="0.53176463" />
    <ellipse
       style="display:inline;opacity:1;fill:#000000;fill-opacity:1;stroke:none;stroke-width:0.80000001;stroke-linecap:round;stroke-linejoin:round;stroke-miterlimit:4;stroke-dasharray:none;stroke-opacity:1"
       id="path6079-3-2"
       cx="60.089413"
       cy="70.620003"
       rx="0.46529412"
       ry="0.53176463" />
    <ellipse
       style="display:inline;opacity:1;fill:#000000;fill-opacity:1;stroke:none;stroke-width:0.80000001;stroke-linecap:round;stroke-linejoin:round;stroke-miterlimit:4;stroke-dasharray:none;stroke-opacity:1"
       id="path6079-3-56"
       cx="63.545883"
       cy="65.568237"
       rx="0.46529412"
       ry="0.53176463" />
    <ellipse
       style="display:inline;opacity:1;fill:#000000;fill-opacity:1;stroke:none;stroke-width:0.80000001;stroke-linecap:round;stroke-linejoin:round;stroke-miterlimit:4;stroke-dasharray:none;stroke-opacity:1"
       id="path6079-3-99"
       cx="64.742355"
       cy="63.574116"
       rx="0.46529412"
       ry="0.53176463" />
    <ellipse
       style="display:inline;opacity:1;fill:#000000;fill-opacity:1;stroke:none;stroke-width:0.80000001;stroke-linecap:round;stroke-linejoin:round;stroke-miterlimit:4;stroke-dasharray:none;stroke-opacity:1"
       id="path6079-3-41"
       cx="68.597649"
       cy="66.764709"
       rx="0.46529412"
       ry="0.53176463" />
    <ellipse
       style="display:inline;opacity:1;fill:#000000;fill-opacity:1;stroke:none;stroke-width:0.80000001;stroke-linecap:round;stroke-linejoin:round;stroke-miterlimit:4;stroke-dasharray:none;stroke-opacity:1"
       id="path6079-3-93"
       cx="63.545883"
       cy="69.82235"
       rx="0.46529412"
       ry="0.53176463" />
    <ellipse
       style="display:inline;opacity:1;fill:#000000;fill-opacity:1;stroke:none;stroke-width:0.80000001;stroke-linecap:round;stroke-linejoin:round;stroke-miterlimit:4;stroke-dasharray:none;stroke-opacity:1"
       id="path6079-3-60"
       cx="60.488235"
       cy="63.441177"
       rx="0.46529412"
       ry="0.53176463" />
    <ellipse
       style="display:inline;opacity:1;fill:#000000;fill-opacity:1;stroke:none;stroke-width:0.80000001;stroke-linecap:round;stroke-linejoin:round;stroke-miterlimit:4;stroke-dasharray:none;stroke-opacity:1"
       id="path6079-3-64"
       cx="59.557648"
       cy="60.915295"
       rx="0.46529412"
       ry="0.53176463" />
    <ellipse
       style="display:inline;opacity:1;fill:#000000;fill-opacity:1;stroke:none;stroke-width:0.80000001;stroke-linecap:round;stroke-linejoin:round;stroke-miterlimit:4;stroke-dasharray:none;stroke-opacity:1"
       id="path6079-3-09"
       cx="58.095295"
       cy="61.580002"
       rx="0.46529412"
       ry="0.53176463" />
    <ellipse
       style="display:inline;opacity:1;fill:#000000;fill-opacity:1;stroke:none;stroke-width:0.80000001;stroke-linecap:round;stroke-linejoin:round;stroke-miterlimit:4;stroke-dasharray:none;stroke-opacity:1"
       id="path6079-3-40"
       cx="56.765881"
       cy="66.631767"
       rx="0.46529412"
       ry="0.53176463" />
    <ellipse
       style="display:inline;opacity:1;fill:#000000;fill-opacity:1;stroke:none;stroke-width:0.80000001;stroke-linecap:round;stroke-linejoin:round;stroke-miterlimit:4;stroke-dasharray:none;stroke-opacity:1"
       id="path6079-3-55"
       cx="44.934116"
       cy="61.845882"
       rx="0.46529412"
       ry="0.53176463" />
    <ellipse
       style="display:inline;opacity:1;fill:#000000;fill-opacity:1;stroke:none;stroke-width:0.80000001;stroke-linecap:round;stroke-linejoin:round;stroke-miterlimit:4;stroke-dasharray:none;stroke-opacity:1"
       id="path6079-3-23"
       cx="41.876472"
       cy="63.042355"
       rx="0.46529412"
       ry="0.53176463" />
    <ellipse
       style="display:inline;opacity:1;fill:#000000;fill-opacity:1;stroke:none;stroke-width:0.80000001;stroke-linecap:round;stroke-linejoin:round;stroke-miterlimit:4;stroke-dasharray:none;stroke-opacity:1"
       id="path6079-3-29"
       cx="39.217648"
       cy="64.504707"
       rx="0.46529412"
       ry="0.53176463" />
    <ellipse
       style="display:inline;opacity:1;fill:#000000;fill-opacity:1;stroke:none;stroke-width:0.80000001;stroke-linecap:round;stroke-linejoin:round;stroke-miterlimit:4;stroke-dasharray:none;stroke-opacity:1"
       id="path6079-3-28"
       cx="37.22353"
       cy="65.036469"
       rx="0.46529412"
       ry="0.53176463" />
    <ellipse
       style="display:inline;opacity:1;fill:#000000;fill-opacity:1;stroke:none;stroke-width:0.80000001;stroke-linecap:round;stroke-linejoin:round;stroke-miterlimit:4;stroke-dasharray:none;stroke-opacity:1"
       id="path6079-3-294"
       cx="38.818825"
       cy="63.308235"
       rx="0.46529412"
       ry="0.53176463" />
    <ellipse
       style="display:inline;opacity:1;fill:#000000;fill-opacity:1;stroke:none;stroke-width:0.80000001;stroke-linecap:round;stroke-linejoin:round;stroke-miterlimit:4;stroke-dasharray:none;stroke-opacity:1"
       id="path6079-3-24"
       cx="39.084705"
       cy="66.897644"
       rx="0.46529412"
       ry="0.53176463" />
    <ellipse
       style="display:inline;opacity:1;fill:#000000;fill-opacity:1;stroke:none;stroke-width:0.80000001;stroke-linecap:round;stroke-linejoin:round;stroke-miterlimit:4;stroke-dasharray:none;stroke-opacity:1"
       id="path6079-3-115"
       cx="61.817646"
       cy="56.395294"
       rx="0.46529412"
       ry="0.53176463" />
    <ellipse
       style="display:inline;opacity:1;fill:#000000;fill-opacity:1;stroke:none;stroke-width:0.80000001;stroke-linecap:round;stroke-linejoin:round;stroke-miterlimit:4;stroke-dasharray:none;stroke-opacity:1"
       id="path6079-3-71"
       cx="65.008232"
       cy="53.736469"
       rx="0.46529412"
       ry="0.53176463" />
  </g>
  <g
     inkscape:groupmode="layer"
     id="layer16"
     inkscape:label="Hair1"
     style="display:inline"
     sodipodi:insensitive="true">
    <path
       style="fill:#fcd97a;fill-opacity:1;fill-rule:evenodd;stroke:#000000;stroke-width:1px;stroke-linecap:butt;stroke-linejoin:miter;stroke-opacity:1"
       d="m 71.123529,77.134118 c 6.868887,-0.881758 9.93979,-8.272631 11.565883,-13.692942 0.461535,1.583708 0.781649,2.748733 0.930588,4.387059 -0.330371,-4.197223 0.797647,-7.392439 0.797647,-11.3 2.860201,0.833139 3.716704,3.043525 4.52,5.051765 -0.4416,-4.597734 -2.089035,-8.470116 -3.057647,-11.698824 2.2191,-2.590976 6.07608,-3.837599 8.375294,-5.849411 -5.210188,-0.226457 -8.1292,-3.336722 -11.3,-5.450589 C 70.496598,28.444984 50.585796,24.890154 41.743529,14.784706 34.879163,13.520684 28.88651,16.298274 25.790588,19.836471 c -4.925905,0.190664 -10.135096,0.836861 -13.692941,2.26 2.63094,1.860026 8.512191,1.142107 11.432941,0.265882 -3.91322,5.012786 -10.128939,10.499406 -12.895294,17.415294 4.612207,-0.02048 9.240339,-2.028744 11.167059,-4.918823 C 18.8153,42.508402 13.055508,45.120856 9.4388235,50.545882 15.721799,55.5993 24.975488,43.576921 28.183529,39.910588 c -1.801706,8.783383 -4.516847,18.267763 -1.861176,27.12 1.637368,-9.48007 4.8197,-23.056464 11.167059,-30.310588 -2.311609,6.808597 -4.593202,13.139301 -6.115294,18.212941 3.483018,-5.419798 8.265645,-11.690585 10.23647,-16.617647 -0.706858,2.867744 -1.30724,5.989686 -1.994117,8.508235 1.422248,-3.010197 4.362416,-6.934713 6.115294,-9.438823 -1.278591,3.001328 -2.316558,6.200131 -3.589412,8.109412 2.139119,-2.943728 5.651859,-6.485531 6.78,-9.305883 -1.158416,4.574118 -3.386111,8.36233 -4.387059,11.698824 6.44861,-3.669231 8.680065,-10.652867 11.831765,-15.155294 6.935346,7.357436 10.179431,19.446686 11.034117,28.848235 1.74109,-4.317674 3.092947,-9.999625 4.121177,-13.427059 0.179019,5.146936 -0.533328,9.580365 -1.329412,13.958824 1.869536,-1.085949 2.918851,-2.45063 3.855294,-3.855294 1.24931,6.877733 -0.870917,13.07167 -2.924706,18.877647 z"
       id="path6063"
       inkscape:connector-curvature="0"
       sodipodi:nodetypes="ccccccccccccccccccccccccccccccc" />
  </g>
  <g
     inkscape:groupmode="layer"
     id="layer21"
     inkscape:label="Ear"
     sodipodi:insensitive="true"
     style="display:inline">
    <path
       style="fill:#fff0c0;fill-opacity:1;fill-rule:evenodd;stroke:#000000;stroke-width:1px;stroke-linecap:round;stroke-linejoin:miter;stroke-opacity:1"
       d="m 78.435294,46.158824 c 2.933569,-1.346154 6.072454,-2.021148 8.641177,-2.791765 5.117307,3.700065 -2.184136,7.368841 -3.988236,9.172941 -2.777614,2.777615 0.05212,7.922588 -7.178823,5.317647"
       id="path6380"
       inkscape:connector-curvature="0"
       sodipodi:nodetypes="ccsc" />
    <path
       style="fill:none;fill-rule:evenodd;stroke:#000000;stroke-width:1px;stroke-linecap:round;stroke-linejoin:miter;stroke-opacity:1"
       d="m 84.284706,46.158824 c -1.609057,0.780086 -2.489663,1.571148 -3.722353,2.392941 -0.368224,1.780688 -1.142846,3.543602 -1.595294,5.051764"
       id="path6382"
       inkscape:connector-curvature="0" />
    <path
       style="fill:none;fill-rule:evenodd;stroke:#000000;stroke-width:1px;stroke-linecap:round;stroke-linejoin:miter;stroke-opacity:1"
       d="m 79.764706,51.210588 c 2.424918,0.159716 3.410947,-1.431346 3.190588,-3.855294"
       id="path6384"
       inkscape:connector-curvature="0" />
  </g>
  <g
     inkscape:groupmode="layer"
     id="layer22"
     inkscape:label="Mouth"
     style="display:inline"
     sodipodi:insensitive="true">
    <path
       style="fill:#000000;fill-opacity:1;fill-rule:evenodd;stroke:#000000;stroke-width:1px;stroke-linecap:round;stroke-linejoin:miter;stroke-opacity:1"
       d="m 36.691765,70.221176 c 23.537249,11.409056 22.416816,-18.694463 9.704706,-5.982352 -2.630166,2.630165 -7.372534,3.317013 -9.704706,5.982352 z"
       id="path6407"
       inkscape:connector-curvature="0" />
    <path
       style="fill:#fbffbd;fill-opacity:1;fill-rule:evenodd;stroke:#000000;stroke-width:1px;stroke-linecap:round;stroke-linejoin:miter;stroke-opacity:1"
       d="m 48.124706,63.175294 c -0.08753,1.355952 0.285238,2.207037 0.398823,3.456471 1.012094,-0.193523 1.853168,-0.383127 2.791765,-0.664706 0,-1.321318 0,-3.372903 0,-4.254118"
       id="path6389"
       inkscape:connector-curvature="0" />
    <path
       style="fill:#fbffbd;fill-opacity:1;fill-rule:evenodd;stroke:#000000;stroke-width:1px;stroke-linecap:round;stroke-linejoin:miter;stroke-opacity:1"
       d="m 54.771765,68.094117 c -1.094444,-1.249823 -1.969155,-2.098529 -2.924706,-3.190588 -0.331108,0.903097 -0.83132,1.18051 -1.196471,1.728236 0.662285,1.520968 0.99408,2.560266 1.462353,4.121176"
       id="path6391"
       inkscape:connector-curvature="0"
       sodipodi:nodetypes="cccc" />
    <path
       style="fill:#fbffbd;fill-opacity:1;fill-rule:evenodd;stroke:#000000;stroke-width:1px;stroke-linecap:round;stroke-linejoin:miter;stroke-opacity:1"
       d="m 47.194118,72.348235 c -0.08994,-1.72447 -0.542804,-2.852481 -0.797647,-4.254117 1.159692,-0.572219 3.179365,-0.940516 3.589411,-1.06353 0.711637,1.334917 1.506744,2.348782 2.127059,3.589412"
       id="path6395"
       inkscape:connector-curvature="0" />
    <path
       style="fill:#fbffbd;fill-opacity:1;fill-rule:evenodd;stroke:#000000;stroke-width:1px;stroke-linecap:round;stroke-linejoin:miter;stroke-opacity:1"
       d="m 45.465882,72.481176 c 0.09043,-1.039588 -0.05755,-2.361321 -0.132941,-3.190588 -1.680698,0.16093 -3.462622,0.254356 -5.051765,0.398824 -0.229194,0.7003 -0.09251,0.925139 -0.132941,1.329412"
       id="path6397"
       inkscape:connector-curvature="0" />
    <path
       style="fill:#fbffbd;fill-opacity:1;fill-rule:evenodd;stroke:#000000;stroke-width:1px;stroke-linecap:round;stroke-linejoin:miter;stroke-opacity:1"
       d="m 46.529412,64.238824 c -0.02273,1.549003 -0.132941,2.951537 -0.132941,4.52 -1.147965,-0.0068 -2.871496,-0.132942 -3.589412,-0.132942 -0.132633,-0.660878 0.09914,-1.38797 0.132941,-1.861176"
       id="path6399"
       inkscape:connector-curvature="0" />
    <path
       style="fill:none;fill-rule:evenodd;stroke:#000000;stroke-width:1px;stroke-linecap:butt;stroke-linejoin:miter;stroke-opacity:1"
       d="M 36.425882,70.221176 14.091765,78.463529 C 12.152252,76.530375 8.231845,77.829615 5.9823529,78.729412"
       id="path6409"
       inkscape:connector-curvature="0" />
    <path
       style="fill:none;fill-rule:evenodd;stroke:#000000;stroke-width:1px;stroke-linecap:butt;stroke-linejoin:miter;stroke-opacity:1"
       d="m 11.964706,82.983529 c 0.456661,-1.255819 1.141697,-3.130955 2.26,-4.254117 C 11.516275,78.684251 8.3516902,81.45353 6.78,82.850588"
       id="path6413"
       inkscape:connector-curvature="0" />
  </g>
  <g
     inkscape:groupmode="layer"
     id="layer23"
     inkscape:label="Features"
     style="display:inline"
     sodipodi:insensitive="true">
    <path
       style="fill:#000000;fill-opacity:1;fill-rule:evenodd;stroke:#000000;stroke-width:1px;stroke-linecap:round;stroke-linejoin:miter;stroke-opacity:1"
       d="m 58.361176,42.968235 c -1.245353,-4.452459 -4.67319,-5.849411 -9.571764,-5.849411 4.57383,0.994058 6.289944,4.536683 9.571764,5.849411 z"
       id="path6416"
       inkscape:connector-curvature="0" />
    <path
       style="fill:#ffffff;fill-opacity:1;fill-rule:evenodd;stroke:#000000;stroke-width:1px;stroke-linecap:round;stroke-linejoin:miter;stroke-opacity:1"
       d="m 49.985882,47.887059 c 2.070315,0.361048 3.489222,-0.332031 4.785883,-1.196471 -0.114949,3.54435 -3.426903,4.593917 -4.785883,1.196471 z"
       id="path6418"
       inkscape:connector-curvature="0" />
    <path
       style="fill:none;fill-rule:evenodd;stroke:#000000;stroke-width:1px;stroke-linecap:round;stroke-linejoin:miter;stroke-opacity:1"
       d="m 50.916471,52.141176 c 1.851112,-0.159816 3.847813,-0.993318 5.051764,-1.595294"
       id="path6420"
       inkscape:connector-curvature="0" />
    <path
       style="fill:none;fill-rule:evenodd;stroke:#000000;stroke-width:1px;stroke-linecap:round;stroke-linejoin:miter;stroke-opacity:1"
       d="m 51.448235,53.204706 c 2.471653,0.09686 3.559448,-1.279471 4.387059,-2.658824"
       id="path6422"
       inkscape:connector-curvature="0" />
  </g>
  <g
     inkscape:groupmode="layer"
     id="layer24"
     inkscape:label="Hat"
     style="display:inline">
    <path
       style="fill:#f9ff73;fill-opacity:1;fill-rule:evenodd;stroke:#000000;stroke-width:1px;stroke-linecap:round;stroke-linejoin:miter;stroke-opacity:1"
       d="M 44.668235,15.316471 C 51.416254,13.153788 53.565656,8.129463 56.898824,5.2129412 63.639096,13.788473 76.368816,10.992349 83.354118,15.183529 78.163562,18.684269 78.036471,23.860005 78.036471,29.94"
       id="path6433"
       inkscape:connector-curvature="0" />
    <path
       style="fill:#c3c763;fill-opacity:1;fill-rule:evenodd;stroke:#000000;stroke-width:1px;stroke-linecap:round;stroke-linejoin:miter;stroke-opacity:1"
       d="m 26.588235,18.772941 c -1.715274,-3.234676 -3.21778,-5.882644 -3.589411,-9.9705881 5.935691,-1.9231083 12.723633,2.1354501 15.022352,5.5835291 -4.768857,0.440474 -7.829138,2.585158 -11.432941,4.387059 z"
       id="path6427"
       inkscape:connector-curvature="0" />
    <path
       style="fill:#f9ff73;fill-opacity:1;fill-rule:evenodd;stroke:#000000;stroke-width:1px;stroke-linecap:round;stroke-linejoin:miter;stroke-opacity:1"
       d="M 100.03442,34.46 C 95.528788,32.809223 91.370785,31.702863 86.544706,30.737647 77.85641,28.999988 71.738685,32.579003 63.147059,29.142353 47.948336,23.062864 41.907431,4.9776864 25.258824,8.0047059 37.505701,8.7713771 49.431375,24.805269 57.297647,33.795294 63.014194,29.78785 86.687139,40.565802 87.608235,39.644706 89.92474,37.328201 97.212455,35.268485 100.03442,34.46 Z"
       id="path6429"
       inkscape:connector-curvature="0"
       sodipodi:nodetypes="cssccsc" />
    <path
       style="fill:#a94710;fill-opacity:1;fill-rule:evenodd;stroke:#000000;stroke-width:1px;stroke-linecap:round;stroke-linejoin:miter;stroke-opacity:1"
       d="m 45.598824,15.050588 c 9.541753,3.495544 18.148702,7.311765 28.981176,7.311765 0.480474,0 2.793045,-0.529204 2.924706,-0.265882 1.132467,2.264934 -0.437725,5.701925 0,8.109411 C 63.680567,33.412871 50.783527,23.184339 45.598824,15.050588 Z"
       id="path6431"
       inkscape:connector-curvature="0"
       sodipodi:nodetypes="csscc" />
    <path
       style="fill:none;fill-rule:evenodd;stroke:#000000;stroke-width:1px;stroke-linecap:round;stroke-linejoin:miter;stroke-opacity:1"
       d="m 90.931765,31.934117 c -3.359964,1.492724 -7.610624,3.434142 -10.635294,5.450589"
       id="path6435"
       inkscape:connector-curvature="0"
       sodipodi:nodetypes="cc" />
    <path
       style="fill:none;fill-rule:evenodd;stroke:#000000;stroke-width:1px;stroke-linecap:round;stroke-linejoin:miter;stroke-opacity:1"
       d="m 78.701176,30.205882 c -2.973902,1.638953 -5.109531,2.875565 -8.375294,3.855294"
       id="path6437"
       inkscape:connector-curvature="0"
       sodipodi:nodetypes="cc" />
    <path
       style="fill:none;fill-rule:evenodd;stroke:#000000;stroke-width:1px;stroke-linecap:round;stroke-linejoin:miter;stroke-opacity:1"
       d="m 64.077647,30.072941 c -1.905886,1.312592 -4.265276,2.26372 -6.248235,2.924706"
       id="path6439"
       inkscape:connector-curvature="0" />
    <path
       style="fill:none;fill-rule:evenodd;stroke:#000000;stroke-width:1px;stroke-linecap:round;stroke-linejoin:miter;stroke-opacity:1"
       d="m 55.170588,24.888235 c -1.740623,0.538909 -2.402155,0.644085 -4.121176,0.930589"
       id="path6441"
       inkscape:connector-curvature="0"
       sodipodi:nodetypes="cc" />
    <path
       style="fill:none;fill-rule:evenodd;stroke:#000000;stroke-width:1px;stroke-linecap:round;stroke-linejoin:miter;stroke-opacity:1"
       d="m 46.396471,16.778824 c -1.403878,-0.117845 -2.767966,0.471448 -3.855295,0.797647"
       id="path6443"
       inkscape:connector-curvature="0" />
    <path
       style="fill:none;fill-rule:evenodd;stroke:#000000;stroke-width:1px;stroke-linecap:round;stroke-linejoin:miter;stroke-opacity:1"
       d="M 38.287059,10.530588 C 36.891664,10.377872 36.20049,10.878432 34.96353,11.328236"
       id="path6445"
       inkscape:connector-curvature="0"
       sodipodi:nodetypes="cc" />
    <path
       style="fill:none;fill-rule:evenodd;stroke:#000000;stroke-width:1px;stroke-linecap:round;stroke-linejoin:miter;stroke-opacity:1"
       d="m 23.929412,12.923529 c 1.985578,-1.630213 4.53803,-2.335485 6.78,-3.4564702"
       id="path6451"
       inkscape:connector-curvature="0" />
    <path
       style="fill:none;fill-rule:evenodd;stroke:#000000;stroke-width:1px;stroke-linecap:round;stroke-linejoin:miter;stroke-opacity:1"
       d="m 25.524706,16.38 c 4.000242,-1.504283 7.627778,-2.764623 11.432941,-3.456471"
       id="path6455"
       inkscape:connector-curvature="0"
       sodipodi:nodetypes="cc" />
    <path
       style="fill:none;fill-rule:evenodd;stroke:#000000;stroke-width:1px;stroke-linecap:round;stroke-linejoin:miter;stroke-opacity:1"
       d="m 48.789412,16.247059 c 5.855697,-0.99091 7.493955,-4.363682 11.167058,-7.5776472"
       id="path6459"
       inkscape:connector-curvature="0"
       sodipodi:nodetypes="cc" />
    <path
       style="fill:none;fill-rule:evenodd;stroke:#000000;stroke-width:1px;stroke-linecap:round;stroke-linejoin:miter;stroke-opacity:1"
       d="m 55.835294,18.64 c 5.158748,-1.056249 6.883606,-5.15537 9.438824,-7.710588"
       id="path6461"
       inkscape:connector-curvature="0"
       sodipodi:nodetypes="cc" />
    <path
       style="fill:none;fill-rule:evenodd;stroke:#000000;stroke-width:1px;stroke-linecap:round;stroke-linejoin:miter;stroke-opacity:1"
       d="m 63.014118,20.634117 c 4.127144,-1.174111 6.753958,-6.358389 8.907058,-8.242352"
       id="path6463"
       inkscape:connector-curvature="0"
       sodipodi:nodetypes="cc" />
    <path
       style="fill:none;fill-rule:evenodd;stroke:#000000;stroke-width:1px;stroke-linecap:round;stroke-linejoin:miter;stroke-opacity:1"
       d="m 72.054118,21.830588 c 2.29877,-2.390709 4.576589,-5.960153 6.248235,-8.109412"
       id="path6465"
       inkscape:connector-curvature="0" />
    <path
       style="fill:none;fill-rule:evenodd;stroke:#000000;stroke-width:1px;stroke-linecap:round;stroke-linejoin:miter;stroke-opacity:1"
       d="M 54.638824,8.0047059 C 60.835966,17.082643 74.369097,13.287372 80.030588,18.241176"
       id="path6469"
       inkscape:connector-curvature="0"
       sodipodi:nodetypes="cc" />
    <path
       style="fill:none;fill-rule:evenodd;stroke:#000000;stroke-width:1px;stroke-linecap:round;stroke-linejoin:miter;stroke-opacity:1"
       d="m 51.049412,12.258824 c 7.831451,5.433449 20.301074,6.44537 27.784706,9.438823"
       id="path6473"
       inkscape:connector-curvature="0" />
  </g>
</svg>
