<?xml version="1.0" encoding="UTF-8" standalone="no"?>
<!-- Created with Inkscape (http://www.inkscape.org/) -->

<svg
   xmlns:dc="http://purl.org/dc/elements/1.1/"
   xmlns:cc="http://creativecommons.org/ns#"
   xmlns:rdf="http://www.w3.org/1999/02/22-rdf-syntax-ns#"
   xmlns:svg="http://www.w3.org/2000/svg"
   xmlns="http://www.w3.org/2000/svg"
   xmlns:sodipodi="http://sodipodi.sourceforge.net/DTD/sodipodi-0.dtd"
   xmlns:inkscape="http://www.inkscape.org/namespaces/inkscape"
   width="100"
   height="100"
   viewBox="0 0 100 100"
   id="svg2"
   version="1.1"
   inkscape:version="0.91 r13725"
   sodipodi:docname="Seth-Portrait.svg">
  <defs
     id="defs4" />
  <sodipodi:namedview
     id="base"
     pagecolor="#ffffff"
     bordercolor="#666666"
     borderopacity="1.0"
     inkscape:pageopacity="0.0"
     inkscape:pageshadow="2"
     inkscape:zoom="8.5"
     inkscape:cx="49.647059"
     inkscape:cy="48.117647"
     inkscape:document-units="px"
     inkscape:current-layer="layer10"
     showgrid="false"
     units="px"
     showguides="true"
     inkscape:guide-bbox="true"
     inkscape:window-width="1920"
     inkscape:window-height="1017"
     inkscape:window-x="3832"
     inkscape:window-y="461"
     inkscape:window-maximized="1">
    <sodipodi:guide
       position="0,125.03479"
       orientation="1,0"
       id="guide4149" />
    <sodipodi:guide
       position="100.03442,122.53146"
       orientation="1,0"
       id="guide4151" />
    <sodipodi:guide
       position="-93.350657,0.093164328"
       orientation="0,1"
       id="guide4153" />
    <sodipodi:guide
       position="-94.841286,99.965324"
       orientation="0,1"
       id="guide4155" />
  </sodipodi:namedview>
  <metadata
     id="metadata7">
    <rdf:RDF>
      <cc:Work
         rdf:about="">
        <dc:format>image/svg+xml</dc:format>
        <dc:type
           rdf:resource="http://purl.org/dc/dcmitype/StillImage" />
        <dc:title></dc:title>
      </cc:Work>
    </rdf:RDF>
  </metadata>
  <g
     inkscape:groupmode="layer"
     id="layer10"
     inkscape:label="Hair1"
     sodipodi:insensitive="true"
     style="display:inline">
    <path
       style="fill:#000000;fill-opacity:1;fill-rule:evenodd;stroke:#000000;stroke-width:1px;stroke-linecap:butt;stroke-linejoin:miter;stroke-opacity:1"
       d="m 80.97474,85.077163 c -1.504414,-0.684073 -2.93415,-0.904709 -4.40346,-1.345502 -0.343481,1.737534 -1.191208,2.934045 -1.834775,3.66955 -6.549822,-3.514507 -12.073643,0.649549 -18.592387,1.834775 -5.469908,-2.731832 -8.544862,-3.344517 -13.577336,-1.834775 -2.979411,0.05156 -3.353174,-2.058251 -4.40346,-4.158823 -0.673456,0.518397 -0.786788,1.04905 -1.100865,1.46782 -0.785323,-0.599126 -1.100981,-1.15342 -1.590139,-1.712457 -1.149988,1.348975 -2.804573,1.140185 -4.158823,0.73391 -1.291922,0.596261 -3.167974,0.490392 -4.525779,0.366955 -0.757514,1.179406 -2.189265,0.97968 -3.547232,0.856228 -3.38483,2.668019 -6.622378,2.358425 -4.525778,-1.834775 -2.254407,1.150525 -2.960298,2.740319 -4.036505,4.892734 -1.802979,-7.451925 4.049328,-15.492504 7.3391,-20.427163 -2.061427,-3.964784 -5.306582,-9.629155 -3.791868,-14.678201 -3.263259,0.213284 -5.650518,2.974446 -6.482872,5.748962 -1.290402,-12.536585 17.549806,-16.670186 8.684602,-29.967993 -0.794805,2.518161 -3.548798,2.875264 -5.626644,3.914187 5.036416,-20.197097 30.746521,-37.1151547 47.581834,-22.384256 7.169902,-1.8501444 12.364979,0.938907 15.412111,7.828374 11.2146,25.355851 -3.693981,41.637289 3.180276,67.03045 z"
       id="path5397"
       inkscape:connector-curvature="0"
       sodipodi:nodetypes="cccccccccccccccccccsc" />
  </g>
  <g
     inkscape:groupmode="layer"
     id="layer11"
     inkscape:label="Body"
     sodipodi:insensitive="true"
     style="display:inline">
    <path
       style="fill:#504747;fill-opacity:1;fill-rule:evenodd;stroke:#000000;stroke-width:1px;stroke-linecap:butt;stroke-linejoin:miter;stroke-opacity:1"
       d="m 80.607785,104.77042 c -1.37473,-4.58244 -1.711489,-9.352335 -0.122318,-14.066614 -3.890874,-1.167262 -10.673909,-1.221601 -15.534429,-0.366955 1.138682,-0.759121 1.781551,-1.533842 2.93564,-2.691003 -10.724082,0.974916 -23.82613,-0.447411 -35.227681,1.834775 0.793027,0.528685 1.861961,0.908681 2.568685,2.20173 -4.215992,1.264797 -14.427389,3.550926 -16.879931,8.224483 1.2817,2.142684 0.437089,4.222074 -0.122318,6.086764"
       id="path5404"
       inkscape:connector-curvature="0" />
  </g>
  <g
     inkscape:groupmode="layer"
     id="layer12"
     inkscape:label="Neck"
     style="display:inline;opacity:1"
     sodipodi:insensitive="true">
    <path
       style="fill:#ffddb4;fill-opacity:1;fill-rule:evenodd;stroke:#000000;stroke-width:1px;stroke-linecap:butt;stroke-linejoin:miter;stroke-opacity:1"
       d="m 38.774913,77.738062 c 2.184912,6.117665 4.875947,12.379333 1.712457,17.124568 4.820344,16.43207 16.085712,7.48987 20.060208,-2.446367 -3.60696,-4.622582 -0.419901,-11.023247 0.489273,-16.023702"
       id="path5407"
       inkscape:connector-curvature="0" />
    <path
       style="fill:none;fill-rule:evenodd;stroke:#000000;stroke-width:1px;stroke-linecap:round;stroke-linejoin:miter;stroke-opacity:1"
       d="m 48.193426,89.969896 c 2.016642,-0.771222 2.721791,-1.391683 3.66955,-2.813322"
       id="path5409"
       inkscape:connector-curvature="0" />
  </g>
  <g
     inkscape:groupmode="layer"
     id="layer13"
     inkscape:label="Face"
     style="display:inline;opacity:1"
     sodipodi:insensitive="true">
    <path
       style="fill:#ffddb4;fill-opacity:1;fill-rule:evenodd;stroke:#000000;stroke-width:1px;stroke-linecap:butt;stroke-linejoin:miter;stroke-opacity:1"
       d="M 71.189273,51.439619 C 72.487812,44.424126 73.407754,30.08585 65.807266,25.018858 61.950514,22.44769 56.116427,25.494286 52.229931,23.551038 35.827854,15.35 22.507242,35.622008 26.665398,49.482526 c 1.115201,2.708264 1.834775,5.250029 1.834775,8.317647 0,35.359862 38.673477,29.982934 40.976644,4.648097 0.164105,0.558565 0,1.2128 0,1.590138 0.909109,-0.306079 1.642185,-0.204888 2.079411,-0.244636 0.266746,-0.712735 0.382748,-1.371202 0.489274,-1.957094 7.014078,-0.551913 7.972251,-18.121972 -0.856229,-10.397059 z"
       id="path5412"
       inkscape:connector-curvature="0" />
    <path
       style="fill:none;fill-rule:evenodd;stroke:#000000;stroke-width:1px;stroke-linecap:butt;stroke-linejoin:round;stroke-opacity:1"
       d="m 71.294118,59.764706 c 10.200922,-8.475405 -3.854925,-9.393307 0,0 z"
       id="path5506"
       inkscape:connector-curvature="0"
       sodipodi:nodetypes="cc" />
    <path
       style="fill:none;fill-rule:evenodd;stroke:#000000;stroke-width:1px;stroke-linecap:butt;stroke-linejoin:round;stroke-opacity:1"
       d="m 71.176471,59.529412 c 3.402684,-4.361209 -1.68068,-5.602264 0,0 z"
       id="path5508"
       inkscape:connector-curvature="0" />
    <path
       style="fill:none;fill-rule:evenodd;stroke:#000000;stroke-width:1px;stroke-linecap:butt;stroke-linejoin:round;stroke-opacity:1"
       d="m 71.294118,59.529412 c 1.341026,-2.21861 0,-2.889258 0,0 z"
       id="path5510"
       inkscape:connector-curvature="0" />
  </g>
  <g
     inkscape:groupmode="layer"
     id="layer14"
     inkscape:label="Hair2"
     style="display:inline"
     sodipodi:insensitive="true">
    <path
       style="fill:#000000;fill-opacity:1;fill-rule:evenodd;stroke:#000000;stroke-width:1px;stroke-linecap:butt;stroke-linejoin:miter;stroke-opacity:1"
       d="m 41.343599,20.248443 c 2.605376,0.604411 4.552227,2.637697 5.87128,3.791868 -0.04404,-1.033016 0.07574,-1.762058 0.244637,-2.691003 1.157617,0.614017 1.453922,1.317706 1.957093,2.324048 0.151197,-0.801346 0.589172,-1.42298 0.856228,-1.957093 0.01332,1.224453 0.103343,2.043511 0,3.180277 2.225957,-1.471275 3.366492,-3.063433 4.158824,-4.648097 0.159187,1.531814 0.129793,3.09805 0,4.525778 1.623417,-1.871855 3.815326,-3.18966 5.626643,-3.914186 -0.574043,1.422808 -1.158392,2.165703 -1.834775,3.180276 1.109528,-0.873434 2.078931,-1.40642 2.935641,-1.834775 0.0072,0.964574 -0.549848,1.466651 -0.856229,2.079412 0.982494,-0.667733 1.937189,-1.117367 2.813322,-1.46782 -0.183919,1.091158 -0.62689,1.490768 -1.100865,2.20173 2.137567,-0.978947 4.143706,-2.220147 5.626644,-2.813322"
       id="path5417"
       inkscape:connector-curvature="0" />
  </g>
  <g
     inkscape:groupmode="layer"
     id="layer15"
     inkscape:label="Features"
     sodipodi:insensitive="true"
     style="display:inline;opacity:1">
    <path
       style="fill:none;fill-rule:evenodd;stroke:#000000;stroke-width:1px;stroke-linecap:round;stroke-linejoin:miter;stroke-opacity:1"
       d="M 56.144118,71.499827 C 51.283441,70.086735 43.998799,69.893959 38.530277,70.888235"
       id="path5422"
       inkscape:connector-curvature="0" />
    <path
       style="fill:none;fill-rule:evenodd;stroke:#000000;stroke-width:0.69999999;stroke-linecap:round;stroke-linejoin:round;stroke-miterlimit:4;stroke-dasharray:none;stroke-opacity:1"
       d="m 43.178374,77.982699 c -0.03798,0.518666 0.169551,0.847755 0.244636,1.223183"
       id="path5424"
       inkscape:connector-curvature="0" />
    <path
       style="fill:none;fill-rule:evenodd;stroke:#000000;stroke-width:0.69999999;stroke-linecap:round;stroke-linejoin:round;stroke-miterlimit:4;stroke-dasharray:none;stroke-opacity:1"
       d="m 46.236332,79.328201 c 0.199657,0.829704 0.36171,1.21007 0.611592,1.834775"
       id="path5426"
       inkscape:connector-curvature="0" />
    <path
       style="fill:none;fill-rule:evenodd;stroke:#000000;stroke-width:0.69999999;stroke-linecap:round;stroke-linejoin:round;stroke-miterlimit:4;stroke-dasharray:none;stroke-opacity:1"
       d="m 47.948789,78.961246 c 0.645921,0.466116 0.811831,0.992238 1.100865,1.345501"
       id="path5428"
       inkscape:connector-curvature="0" />
    <path
       style="fill:none;fill-rule:evenodd;stroke:#000000;stroke-width:0.69999999;stroke-linecap:round;stroke-linejoin:round;stroke-miterlimit:4;stroke-dasharray:none;stroke-opacity:1"
       d="m 37.184775,67.218685 c 0.295291,-1.005026 0.894091,-0.198687 1.100865,-0.244637 0.745478,-1.805622 0.872644,-0.489273 1.590139,-0.489273 0.987569,-1.559671 1.189548,-0.414492 1.712456,-0.366955 0.267729,-1.79432 0.700217,0 1.100865,0"
       id="path5454"
       inkscape:connector-curvature="0" />
    <path
       style="fill:none;fill-rule:evenodd;stroke:#000000;stroke-width:0.69999999;stroke-linecap:round;stroke-linejoin:round;stroke-miterlimit:4;stroke-dasharray:none;stroke-opacity:1"
       d="m 48.438062,66.362457 c -0.09355,-1.832183 0.864545,0 0.978547,0 1.284392,-1.600961 1.396727,-0.264505 1.712457,0.366955 1.534162,-1.3522 0.731851,0.219555 1.223183,0.366955 0.778403,-1.143398 1.164907,-0.105901 1.345502,-0.122319 0.714713,-0.799301 0.817836,0.408919 0.978547,0.489274 0.836046,-0.296012 0.484445,0.565186 0.73391,0.856228"
       id="path5460"
       inkscape:connector-curvature="0" />
    <path
       style="fill:none;fill-rule:evenodd;stroke:#000000;stroke-width:1px;stroke-linecap:round;stroke-linejoin:round;stroke-opacity:1"
       d="m 32.903633,35.90519 c 1.339712,-1.200985 1.33637,-0.09188 0.978547,1.100865 1.407266,-3.822555 2.082404,-2.2127 1.345502,0.489274 0.692257,-3.327657 1.161853,-2.815715 1.345501,-0.244637 0.248995,-2.216 1.345502,-3.9556 1.345502,-0.856228 0.02615,-1.99733 0.756079,-2.691784 0.978547,-0.244637 0.08046,-1.846515 0.388478,-2.086764 0.978547,-0.611592 -0.01612,-0.318037 0.489273,-0.407728 0.73391,-0.611591"
       id="path5464"
       inkscape:connector-curvature="0" />
    <path
       style="fill:none;fill-rule:evenodd;stroke:#000000;stroke-width:1px;stroke-linecap:round;stroke-linejoin:round;stroke-opacity:1"
       d="m 59.446713,35.538235 c 0.702372,1.1768 0.717574,0.651479 1.712457,-0.122318 -0.05674,2.87564 1.223183,-1.344546 1.223183,1.834775 0.610316,-1.913187 0.902051,-1.888545 1.223183,-0.122318 0.795282,-2.150063 1.055251,-0.483033 0.856229,0.611591 0.599669,-0.493258 1.304779,-0.960464 1.957093,-1.46782"
       id="path5466"
       inkscape:connector-curvature="0" />
    <path
       style="fill:none;fill-rule:evenodd;stroke:#000000;stroke-width:1px;stroke-linecap:round;stroke-linejoin:round;stroke-opacity:1"
       d="m 39.647059,59.294118 c -1.117953,3.019111 0.70574,3.023572 2.941176,2.352941 0.81804,1.164346 2.019323,1.346973 3.411765,1.764706 1.355247,-1.697817 3.618739,-1.647059 5.764706,-1.647059 2.760142,-0.278738 1.187547,-2.361383 -0.352941,-2.82353"
       id="path5470"
       inkscape:connector-curvature="0" />
    <path
       style="fill:none;fill-rule:evenodd;stroke:#000000;stroke-width:1px;stroke-linecap:round;stroke-linejoin:miter;stroke-opacity:1"
       d="m 43.176471,42.470588 c 2.369444,-2.989287 6.763732,-1.611145 8.470588,-0.117647"
       id="path5472"
       inkscape:connector-curvature="0"
       sodipodi:nodetypes="cc" />
    <path
       style="fill:none;fill-rule:evenodd;stroke:#000000;stroke-width:1px;stroke-linecap:round;stroke-linejoin:miter;stroke-opacity:1"
       d="M 51.529412,45.764706 C 50.207736,42.56204 44.441538,44.402948 42.941177,46.117647"
       id="path5474"
       inkscape:connector-curvature="0"
       sodipodi:nodetypes="cc" />
    <path
       style="fill:#434343;fill-opacity:1;fill-rule:evenodd;stroke:#000000;stroke-width:1px;stroke-linecap:butt;stroke-linejoin:miter;stroke-opacity:1"
       d="m 42.588235,40.588235 c 2.000658,15.526552 -10.308687,19.427967 -11.882353,2.117647 0.798966,-3.751746 9.325947,-2.307266 11.882353,-2.117647 z"
       id="path5480"
       inkscape:connector-curvature="0" />
    <path
       style="fill:#434343;fill-opacity:1;fill-rule:evenodd;stroke:#000000;stroke-width:1px;stroke-linecap:butt;stroke-linejoin:miter;stroke-opacity:1"
       d="M 52,42.352941 C 54.530195,38.94124 63.013569,40.130809 66.823529,40.823529 67.075387,56.41076 50.11188,63.122263 52,42.352941 Z"
       id="path5482"
       inkscape:connector-curvature="0" />
    <path
       style="fill:none;fill-rule:evenodd;stroke:#000000;stroke-width:1px;stroke-linecap:round;stroke-linejoin:miter;stroke-opacity:1"
       d="m 66.352941,47.058824 c 2.663339,1.667959 4.102648,2.918678 5.294118,4.705882"
       id="path5484"
       inkscape:connector-curvature="0"
       sodipodi:nodetypes="cc" />
    <path
       style="fill:none;fill-rule:evenodd;stroke:#000000;stroke-width:1px;stroke-linecap:round;stroke-linejoin:miter;stroke-opacity:1"
       d="m 31.176471,46.352941 c -1.698342,0.892074 -2.838662,2.824017 -3.764706,3.882353"
       id="path5488"
       inkscape:connector-curvature="0" />
    <path
       style="opacity:0.297;fill:none;fill-rule:evenodd;stroke:#000000;stroke-width:0.80000001;stroke-linecap:round;stroke-linejoin:miter;stroke-miterlimit:4;stroke-dasharray:none;stroke-opacity:1"
       d="m 39.882353,42.235294 c -2.171932,2.498524 -4.301338,5.661499 -5.411765,7.882353"
       id="path5492"
       inkscape:connector-curvature="0" />
    <path
       style="opacity:0.297;fill:none;fill-rule:evenodd;stroke:#000000;stroke-width:0.80000001;stroke-linecap:round;stroke-linejoin:miter;stroke-miterlimit:4;stroke-dasharray:none;stroke-opacity:1"
       d="m 40.823529,47.294118 c -1.150856,1.380174 -2.623183,2.758304 -3.529411,4.117647"
       id="path5494"
       inkscape:connector-curvature="0" />
    <path
       style="opacity:0.297;fill:none;fill-rule:evenodd;stroke:#000000;stroke-width:0.80000001;stroke-linecap:round;stroke-linejoin:miter;stroke-miterlimit:4;stroke-dasharray:none;stroke-opacity:1"
       d="m 53.058824,49.529412 c 0.863908,-3.10721 3.745387,-5.625326 5.647058,-7.764706"
       id="path5500"
       inkscape:connector-curvature="0" />
    <path
       style="opacity:0.297;fill:none;fill-rule:evenodd;stroke:#000000;stroke-width:0.80000001;stroke-linecap:round;stroke-linejoin:miter;stroke-miterlimit:4;stroke-dasharray:none;stroke-opacity:1"
       d="m 63.411765,41.411765 c -2.994955,3.349676 -5.389509,8.084263 -7.764706,11.647059"
       id="path5504"
       inkscape:connector-curvature="0" />
  </g>
</svg>
