<?xml version="1.0" encoding="UTF-8" standalone="no"?>
<!-- Created with Inkscape (http://www.inkscape.org/) -->

<svg
   xmlns:dc="http://purl.org/dc/elements/1.1/"
   xmlns:cc="http://creativecommons.org/ns#"
   xmlns:rdf="http://www.w3.org/1999/02/22-rdf-syntax-ns#"
   xmlns:svg="http://www.w3.org/2000/svg"
   xmlns="http://www.w3.org/2000/svg"
   xmlns:sodipodi="http://sodipodi.sourceforge.net/DTD/sodipodi-0.dtd"
   xmlns:inkscape="http://www.inkscape.org/namespaces/inkscape"
   width="100"
   height="100"
   viewBox="0 0 100 100"
   id="svg2"
   version="1.1"
   inkscape:version="0.91 r13725"
   sodipodi:docname="Vance-Portrait.svg">
  <defs
     id="defs4" />
  <sodipodi:namedview
     id="base"
     pagecolor="#ffffff"
     bordercolor="#666666"
     borderopacity="1.0"
     inkscape:pageopacity="0.0"
     inkscape:pageshadow="2"
     inkscape:zoom="8.5"
     inkscape:cx="50"
     inkscape:cy="50"
     inkscape:document-units="px"
     inkscape:current-layer="layer25"
     showgrid="false"
     units="px"
     showguides="true"
     inkscape:guide-bbox="true"
     inkscape:window-width="1920"
     inkscape:window-height="1017"
     inkscape:window-x="3832"
     inkscape:window-y="461"
     inkscape:window-maximized="1">
    <sodipodi:guide
       position="0,125.03479"
       orientation="1,0"
       id="guide4149" />
    <sodipodi:guide
       position="100.03442,122.53146"
       orientation="1,0"
       id="guide4151" />
    <sodipodi:guide
       position="-93.350657,0.093164328"
       orientation="0,1"
       id="guide4153" />
    <sodipodi:guide
       position="-94.841286,99.965324"
       orientation="0,1"
       id="guide4155" />
  </sodipodi:namedview>
  <metadata
     id="metadata7">
    <rdf:RDF>
      <cc:Work
         rdf:about="">
        <dc:format>image/svg+xml</dc:format>
        <dc:type
           rdf:resource="http://purl.org/dc/dcmitype/StillImage" />
        <dc:title />
      </cc:Work>
    </rdf:RDF>
  </metadata>
  <g
     inkscape:groupmode="layer"
     id="layer25"
     inkscape:label="Neck"
     style="display:inline"
     sodipodi:insensitive="true">
    <path
       style="fill:#fdeace;fill-opacity:1;fill-rule:evenodd;stroke:#000000;stroke-width:1px;stroke-linecap:butt;stroke-linejoin:miter;stroke-opacity:1"
       d="m 69.315294,65.028235 c -2.585684,6.586713 0.563239,13.464916 2.30353,19.265883 C 65.990193,95.188931 48.005783,102.50477 39.16,94.764706 41.493334,89.068705 43.276888,83.656619 41.882353,75.289412"
       id="path7037"
       inkscape:connector-curvature="0" />
  </g>
  <g
     inkscape:groupmode="layer"
     id="layer26"
     inkscape:label="Body"
     style="display:inline;opacity:1"
     sodipodi:insensitive="true">
    <path
       style="fill:#295196;fill-opacity:1;fill-rule:evenodd;stroke:#000000;stroke-width:1px;stroke-linecap:butt;stroke-linejoin:miter;stroke-opacity:1"
       d="m 76.854118,87.644706 c 3.414668,8.875101 1.27947,14.403414 -1.675294,20.312944 -14.735172,-1.2435 -29.420743,-0.41883 -44.604706,-0.41883 -0.420966,-6.03485 1.302519,-9.387893 3.56,-12.774114 17.071166,4.802876 30.479277,-0.99964 42.72,-7.12 z"
       id="path7046"
       inkscape:connector-curvature="0" />
    <path
       style="fill:#44d8eb;fill-opacity:1;fill-rule:evenodd;stroke:#000000;stroke-width:1px;stroke-linecap:butt;stroke-linejoin:miter;stroke-opacity:1"
       d="m 49.202403,96.379887 c -1.716894,-1.074013 -3.522623,-2.057752 -5.29393,-2.21878 0.0056,1.075696 0.149039,2.111243 -0.116778,2.997299 1.500874,0.286201 3.736892,1.508872 3.736892,2.74843 -0.06642,-0.704456 0.935663,-2.145509 1.673816,-3.526949 z"
       id="path7056"
       inkscape:connector-curvature="0" />
    <path
       style="fill:#5982c9;fill-opacity:1;fill-rule:evenodd;stroke:#000000;stroke-width:1px;stroke-linecap:butt;stroke-linejoin:miter;stroke-opacity:1"
       d="m 37.484706,89.32 c 2.614213,2.110785 4.352208,3.432575 6.701176,4.607059 -0.731071,4.553258 -1.247417,5.76355 -2.094118,8.585881 -4.262378,-2.606104 -6.973807,-4.678182 -8.585882,-10.051764 1.384465,-1.933224 2.534543,-2.419035 3.978824,-3.141176 z"
       id="path7048"
       inkscape:connector-curvature="0"
       sodipodi:nodetypes="ccccc" />
    <path
       style="fill:#44d8eb;fill-opacity:1;fill-rule:evenodd;stroke:#000000;stroke-width:1px;stroke-linecap:butt;stroke-linejoin:miter;stroke-opacity:1"
       d="m 56.520482,94.978552 c 1.665841,-0.297281 2.561962,-1.779471 3.464409,-2.569113 0.992363,1.044269 1.242115,2.281492 1.868446,2.997299 -1.382993,0.750683 -2.520399,1.39644 -3.620114,1.946297 -0.565314,-1.027937 -1.030708,-1.595015 -1.712741,-2.374483 z"
       id="path7060"
       inkscape:connector-curvature="0" />
    <path
       style="fill:#5982c9;fill-opacity:1;fill-rule:evenodd;stroke:#000000;stroke-width:1px;stroke-linecap:butt;stroke-linejoin:miter;stroke-opacity:1"
       d="m 71.828235,80.943529 c 2.64803,2.225379 3.830435,3.251663 5.86353,4.607059 -4.161478,5.962978 -9.331969,10.16307 -14.449412,14.356248 -0.621951,-3.636451 -1.929145,-5.761321 -3.769412,-7.864483 5.506729,-3.464449 8.311008,-7.560072 12.355294,-11.098824 z"
       id="path7050"
       inkscape:connector-curvature="0" />
    <path
       style="fill:#44d8eb;fill-opacity:1;fill-rule:evenodd;stroke:#000000;stroke-width:1px;stroke-linecap:butt;stroke-linejoin:miter;stroke-opacity:1"
       d="m 50.677647,93.298824 c 26.339265,3.384282 -14.737305,22.105956 0,0 z"
       id="path7054"
       inkscape:connector-curvature="0" />
  </g>
  <g
     inkscape:groupmode="layer"
     id="layer27"
     inkscape:label="Face"
     style="display:inline"
     sodipodi:insensitive="true">
    <path
       style="fill:#fdeace;fill-opacity:1;fill-rule:evenodd;stroke:#000000;stroke-width:1px;stroke-linecap:round;stroke-linejoin:miter;stroke-opacity:1"
       d="m 42.823529,80.705882 c 3.435344,3.926107 8.733061,6.434607 12.82353,0.588236 8.782321,-1.596786 15.587352,-12.792463 15.529412,-22.705883 1.177004,2.924103 3.882353,1.551024 3.882353,-1.411764 8.872946,-1.78891 5.822526,-21.410619 -2,-12.470589 C 85.585128,-0.98652442 10.434485,2.6156241 28.588235,48 c -7.251402,-0.873356 -4.994084,5.24121 -2.470588,7.764706 2.362858,2.362858 -0.456414,6.950626 2.705882,9.058823 2.050539,9.126909 5.22748,13.250599 14,15.882353 z"
       id="path4158"
       inkscape:connector-curvature="0" />
    <path
       style="fill:#fdeace;fill-opacity:1;fill-rule:evenodd;stroke:#000000;stroke-width:1px;stroke-linecap:round;stroke-linejoin:miter;stroke-opacity:1"
       d="M 29.176471,65.294118 C 29.017068,61.07501 28.95699,56.997477 28.588235,52.941176"
       id="path4160"
       inkscape:connector-curvature="0" />
    <path
       style="fill:#fdeace;fill-opacity:1;fill-rule:evenodd;stroke:#000000;stroke-width:1px;stroke-linecap:round;stroke-linejoin:miter;stroke-opacity:1"
       d="m 73.411765,49.411765 c 0.749559,-1.989139 1.100141,-4.470589 3.764706,-4.470589"
       id="path4162"
       inkscape:connector-curvature="0" />
    <path
       style="fill:#fdeace;fill-opacity:1;fill-rule:evenodd;stroke:#000000;stroke-width:1px;stroke-linecap:round;stroke-linejoin:miter;stroke-opacity:1"
       d="m 74.823529,46.352941 c 4.858949,2.041931 -4.741592,7.939075 1.058824,7.411765 0.522514,-1.356406 -0.358169,-1.720261 -0.705882,-2.117647"
       id="path4166"
       inkscape:connector-curvature="0" />
    <path
       style="fill:#fdeace;fill-opacity:1;fill-rule:evenodd;stroke:#000000;stroke-width:1px;stroke-linecap:round;stroke-linejoin:miter;stroke-opacity:1"
       d="m 25.764706,50.705882 c 2.093812,0.715939 1.164568,1.959031 0.352941,3.176471"
       id="path4168"
       inkscape:connector-curvature="0" />
  </g>
  <g
     inkscape:groupmode="layer"
     id="layer3"
     inkscape:label="Hair"
     sodipodi:insensitive="true"
     style="display:inline">
    <path
       style="fill:#bfbfbf;fill-opacity:1;fill-rule:evenodd;stroke:#000000;stroke-width:1px;stroke-linecap:butt;stroke-linejoin:miter;stroke-opacity:1"
       d="m 61.764706,63.176471 c -1.208168,-0.152022 -1.865115,0.298987 -2.588235,0.588235 0.487578,1.037186 0.235294,1.672085 0.235294,2.352941 -0.786818,0.159471 -1.38103,-0.144144 -1.882353,-0.235294 -0.363615,1.076675 -0.751152,1.855245 -1.176471,2.705882 -1.387248,-0.278692 -2.616937,-1.313252 -3.294117,-1.764706 -1.342898,1.051973 -1.541645,2.900702 -2.352942,4.117647 -0.354857,-0.882202 -0.631624,-1.123907 -1.058823,-1.764705 -0.570566,0.901881 -0.937504,1.246786 -1.529412,1.764705 -0.482457,-0.692368 -0.838128,-1.624733 -0.941176,-1.882352 -1.25418,1.338864 -2.048493,1.788952 -3.411765,2.470588 -0.843112,-1.070652 -0.954788,-1.927724 -1.294118,-3.058824 -1.146399,0.755734 -1.97988,1.241489 -2.941176,1.882353 -0.317983,-0.591649 -0.328482,-1.149687 -0.470588,-1.647059 -1.360151,0.338421 -2.272202,0.926566 -3.176471,1.529412 2.279016,-6.799202 18.339084,-12.087671 25.882353,-7.058823 z"
       id="path4199"
       inkscape:connector-curvature="0" />
    <path
       style="fill:#bfbfbf;fill-opacity:1;fill-rule:evenodd;stroke:#000000;stroke-width:1px;stroke-linecap:butt;stroke-linejoin:miter;stroke-opacity:1"
       d="m 74,28.941176 c 0.354349,3.109596 1.535299,5.039234 2.352941,7.764706 0.184045,-0.752477 0.633845,-1.303708 0.941177,-1.764706 -0.214745,2.918274 -1.156594,4.604879 -1.411765,7.411765 -1.065017,0.963867 -1.814935,1.351522 -2.588235,2.235294 -0.887676,-4.354148 -1.017465,-8.831352 -1.764706,-12.941176 1.050636,1.255389 1.765432,2.177559 2.588235,3.411765 C 73.493085,33.018767 73.387342,30.98337 74,28.941176 Z"
       id="path4204"
       inkscape:connector-curvature="0" />
    <path
       style="fill:#bfbfbf;fill-opacity:1;fill-rule:evenodd;stroke:#000000;stroke-width:1px;stroke-linecap:butt;stroke-linejoin:miter;stroke-opacity:1"
       d="m 29.058824,48.470588 c 0.358461,-4.622607 -1.651588,-7.006793 -3.647059,-10 0.597934,1.357392 1.054553,3.035335 1.294117,4.352941 C 25.519557,41.954405 24.95061,41.339623 24,40.705882 c 1.331939,3.391869 3.293282,6.083079 5.176471,8.235294"
       id="path4206"
       inkscape:connector-curvature="0" />
  </g>
  <g
     inkscape:groupmode="layer"
     id="layer2"
     inkscape:label="Features"
     style="display:inline"
     sodipodi:insensitive="true">
    <path
       style="fill:#bfbfbf;fill-opacity:1;fill-rule:evenodd;stroke:#000000;stroke-width:1px;stroke-linecap:butt;stroke-linejoin:miter;stroke-opacity:1"
       d="m 37.882353,31.411765 c -2.263612,3.234222 -5.042317,5.753701 -8.235294,7.882353 4.726191,0.209213 8.717769,-2.517787 10.941176,-5.058824 -1.346544,0.627802 -2.577873,0.801197 -4.117647,0.941177 0.640848,-1.493354 0.947615,-2.217541 1.411765,-3.764706 z"
       id="path4208"
       inkscape:connector-curvature="0" />
    <ellipse
       style="opacity:1;fill:#000000;fill-opacity:1;stroke:none;stroke-width:0.80000001;stroke-linecap:round;stroke-linejoin:round;stroke-miterlimit:4;stroke-dasharray:none;stroke-opacity:1"
       id="path4181-1"
       cx="54.950859"
       cy="40.221554"
       rx="0.94117647"
       ry="1.8823531"
       transform="matrix(0.99884045,-0.04814305,0.04814305,0.99884045,0,0)" />
    <ellipse
       style="opacity:1;fill:#000000;fill-opacity:1;stroke:none;stroke-width:0.80000001;stroke-linecap:round;stroke-linejoin:round;stroke-miterlimit:4;stroke-dasharray:none;stroke-opacity:1"
       id="path4181"
       cx="23.810093"
       cy="49.108315"
       rx="0.94117647"
       ry="1.8823531"
       transform="matrix(0.9486833,-0.31622775,0.31622775,0.9486833,0,0)" />
    <path
       style="fill:#bfbfbf;fill-opacity:1;fill-rule:evenodd;stroke:#000000;stroke-width:1px;stroke-linecap:butt;stroke-linejoin:miter;stroke-opacity:1"
       d="m 65.764706,35.058823 c -5.007966,-1.555502 -9.85174,-1.884978 -12.941177,-4.588235 0.11312,2.581014 1.146184,3.496796 2.82353,4 -1.899286,-0.175438 -2.974575,0.836889 -4.117647,1.294118 3.580486,2.270772 10.686611,0.358723 14.235294,-0.705883 z"
       id="path4212"
       inkscape:connector-curvature="0" />
    <path
       style="fill:none;fill-rule:evenodd;stroke:#000000;stroke-width:1px;stroke-linecap:round;stroke-linejoin:miter;stroke-opacity:1"
       d="m 46.588235,75.411765 c 1.993777,-0.315095 3.854574,-0.470589 6.117647,-0.470589"
       id="path4171"
       inkscape:connector-curvature="0" />
    <path
       style="fill:#fdeace;fill-opacity:1;fill-rule:evenodd;stroke:#000000;stroke-width:1px;stroke-linecap:butt;stroke-linejoin:miter;stroke-opacity:1"
       d="m 51.647059,60.352941 c 3.678632,1.061871 -0.604597,3.477445 -2,3.058824 C 44.791858,69.371641 40.92762,61.622125 43.176471,56"
       id="path4177"
       inkscape:connector-curvature="0" />
    <path
       style="fill:#fdeace;fill-opacity:1;fill-rule:evenodd;stroke:#000000;stroke-width:1px;stroke-linecap:butt;stroke-linejoin:miter;stroke-opacity:1"
       d="m 42.941176,62.588235 c -4.202859,0.741405 -2.664959,3.324808 0.941177,1.882353"
       id="path4179"
       inkscape:connector-curvature="0" />
  </g>
  <g
     inkscape:groupmode="layer"
     id="layer4"
     inkscape:label="Glasses"
     style="display:inline"
     sodipodi:insensitive="true">
    <path
       style="fill:#00479d;fill-opacity:0.54437872;fill-rule:evenodd;stroke:#000000;stroke-width:1px;stroke-linecap:butt;stroke-linejoin:miter;stroke-opacity:1"
       d="m 41.294118,48.470588 c -4.312605,1.609201 -8.75668,3.164316 -12.705883,3.882353 -0.329403,1.51392 0.0358,3.570328 0.117647,4.470588 4.64971,-0.401387 9.162484,-0.992109 13.411765,-1.764705 0.384643,-2.142627 -0.253199,-4.687135 -0.823529,-6.588236 z"
       id="path4244"
       inkscape:connector-curvature="0" />
    <path
       style="fill:#00479d;fill-opacity:0.54509804;fill-rule:evenodd;stroke:#000000;stroke-width:1px;stroke-linecap:butt;stroke-linejoin:miter;stroke-opacity:1"
       d="m 50.588235,46.470588 c 5.948441,-2.894881 10.54052,-1.882353 18,-1.882353 0.185091,2.023038 -0.352941,3.398755 -0.352941,5.529412 -4.180093,1.770167 -9.66182,1.637706 -14.941176,2.117647 -2.01085,-1.653557 -0.910542,-3.712889 -2.705883,-5.764706 z"
       id="path4246"
       inkscape:connector-curvature="0"
       sodipodi:nodetypes="ccccc" />
    <path
       style="fill:none;fill-rule:evenodd;stroke:#000000;stroke-width:1px;stroke-linecap:round;stroke-linejoin:miter;stroke-opacity:1"
       d="m 48.235294,47.529412 c -2.888414,-4.05069 -3.653523,-1.780219 -4.588235,1.647059"
       id="path4173"
       inkscape:connector-curvature="0"
       sodipodi:nodetypes="cc" />
  </g>
</svg>
