<?xml version="1.0" encoding="UTF-8" standalone="no"?>
<!-- Created with Inkscape (http://www.inkscape.org/) -->

<svg
   xmlns:dc="http://purl.org/dc/elements/1.1/"
   xmlns:cc="http://creativecommons.org/ns#"
   xmlns:rdf="http://www.w3.org/1999/02/22-rdf-syntax-ns#"
   xmlns:svg="http://www.w3.org/2000/svg"
   xmlns="http://www.w3.org/2000/svg"
   xmlns:sodipodi="http://sodipodi.sourceforge.net/DTD/sodipodi-0.dtd"
   xmlns:inkscape="http://www.inkscape.org/namespaces/inkscape"
   width="100"
   height="100"
   viewBox="0 0 100 100"
   id="svg2"
   version="1.1"
   inkscape:version="0.91 r13725"
   sodipodi:docname="Walt-Portrait.svg">
  <defs
     id="defs4" />
  <sodipodi:namedview
     id="base"
     pagecolor="#ffffff"
     bordercolor="#666666"
     borderopacity="1.0"
     inkscape:pageopacity="0.0"
     inkscape:pageshadow="2"
     inkscape:zoom="8.5"
     inkscape:cx="58.352941"
     inkscape:cy="41.647059"
     inkscape:document-units="px"
     inkscape:current-layer="layer5"
     showgrid="false"
     units="px"
     showguides="true"
     inkscape:guide-bbox="true"
     inkscape:window-width="1920"
     inkscape:window-height="1017"
     inkscape:window-x="3832"
     inkscape:window-y="461"
     inkscape:window-maximized="1">
    <sodipodi:guide
       position="0,125.03479"
       orientation="1,0"
       id="guide4149" />
    <sodipodi:guide
       position="100.03442,122.53146"
       orientation="1,0"
       id="guide4151" />
    <sodipodi:guide
       position="-93.350657,0.093164328"
       orientation="0,1"
       id="guide4153" />
    <sodipodi:guide
       position="-94.841286,99.965324"
       orientation="0,1"
       id="guide4155" />
  </sodipodi:namedview>
  <metadata
     id="metadata7">
    <rdf:RDF>
      <cc:Work
         rdf:about="">
        <dc:format>image/svg+xml</dc:format>
        <dc:type
           rdf:resource="http://purl.org/dc/dcmitype/StillImage" />
        <dc:title></dc:title>
      </cc:Work>
    </rdf:RDF>
  </metadata>
  <g
     inkscape:groupmode="layer"
     id="layer5"
     inkscape:label="Body"
     style="display:inline;opacity:1"
     sodipodi:insensitive="true">
    <path
       style="fill:#d9c729;fill-opacity:1;fill-rule:evenodd;stroke:#000000;stroke-width:1px;stroke-linecap:butt;stroke-linejoin:miter;stroke-opacity:1"
       d="M 4.9411765,106.47059 C 6.7769122,102.35607 7.2284484,97.627916 10.117647,93.294118 23.71997,72.890634 59.535369,75.603574 79.411765,87.529412 c 7.461102,4.476661 11.622642,17.056608 14.352941,23.882348"
       id="path4847"
       inkscape:connector-curvature="0" />
    <path
       style="fill:#fff9dd;fill-opacity:1;fill-rule:evenodd;stroke:#000000;stroke-width:1px;stroke-linecap:butt;stroke-linejoin:miter;stroke-opacity:1"
       d="M 41.647059,113.05882 C 38.590764,102.87118 34.376829,90.947016 30.235294,80.117647 36.918795,77.648457 57.556448,77.778224 66,82 c -2.211212,9.325315 -3.497841,21.6414 -2.588235,31.64706"
       id="path4849"
       inkscape:connector-curvature="0"
       sodipodi:nodetypes="cccc" />
    <path
       style="fill:#fff9dd;fill-opacity:1;fill-rule:evenodd;stroke:#000000;stroke-width:1px;stroke-linecap:butt;stroke-linejoin:miter;stroke-opacity:1"
       d="m 31.764706,84.235294 c -6.262972,1.549147 -7.841103,-2.291065 -10,-5.529412 12.795362,-7.249299 41.840605,-4.812145 52.941176,2.588236 -2.75991,3.07924 -5.960779,4.435292 -10,5.647058"
       id="path4851"
       inkscape:connector-curvature="0" />
  </g>
  <g
     inkscape:groupmode="layer"
     id="layer6"
     inkscape:label="Neck"
     style="display:inline"
     sodipodi:insensitive="true">
    <path
       style="fill:#7b5c2f;fill-opacity:1;fill-rule:evenodd;stroke:#000000;stroke-width:1px;stroke-linecap:butt;stroke-linejoin:miter;stroke-opacity:1"
       d="m 36.588235,65.529412 c -0.2489,6.922761 -2.862648,13.509563 -4.941176,18.705882 6.955614,5.343277 14.763976,14.59495 20,19.176466 5.967908,-4.179049 9.198884,-13.078431 12.941176,-16.352937 -1.731578,-5.20772 -2,-11.44638 -2,-17.294117"
       id="path4854"
       inkscape:connector-curvature="0"
       sodipodi:nodetypes="ccccc" />
  </g>
  <g
     inkscape:groupmode="layer"
     id="layer7"
     inkscape:label="Face"
     style="display:inline;opacity:1"
     sodipodi:insensitive="true">
    <path
       style="fill:#7b5c2f;fill-opacity:1;fill-rule:evenodd;stroke:#000000;stroke-width:1px;stroke-linecap:butt;stroke-linejoin:miter;stroke-opacity:1"
       d="m 77.882353,40.352941 c 7.148961,-10.723441 9.351083,11.925828 1.294118,13.882353 -6.541948,37.921289 -35.737983,39.69692 -46.235295,4.705883 -6.299733,1.344174 -16.306932,-22.682878 -2.705882,-15.882353 0.414096,-4.555055 -0.09009,-13.335449 4.352941,-20 6.48632,-9.72948 27.877386,-7.943661 36.000001,-3.882354 5.976134,2.988067 7.522583,15.247269 7.294117,21.176471 z"
       id="path4859"
       inkscape:connector-curvature="0"
       sodipodi:nodetypes="ccccssc" />
    <path
       style="fill:none;fill-rule:evenodd;stroke:#000000;stroke-width:1px;stroke-linecap:round;stroke-linejoin:miter;stroke-opacity:1"
       d="M 32.941177,58.941176 C 32.596005,56.021665 32.146799,52.920702 31.411765,50.470588"
       id="path4861"
       inkscape:connector-curvature="0"
       sodipodi:nodetypes="cc" />
    <path
       style="fill:none;fill-rule:evenodd;stroke:#000000;stroke-width:1px;stroke-linecap:round;stroke-linejoin:miter;stroke-opacity:1"
       d="m 79.294118,54.470588 c 0.13755,-3.357838 -0.318844,-6.518345 -0.82353,-9.294117"
       id="path4863"
       inkscape:connector-curvature="0" />
  </g>
  <g
     inkscape:groupmode="layer"
     id="layer8"
     inkscape:label="Hair"
     sodipodi:insensitive="true"
     style="display:inline">
    <path
       style="fill:#000000;fill-opacity:1;fill-rule:evenodd;stroke:#000000;stroke-width:1px;stroke-linecap:butt;stroke-linejoin:miter;stroke-opacity:1"
       d="m 82,37.058824 c -1.711532,0.684612 -3.111721,1.331722 -4.117647,3.058823 C 74.642797,4.4825308 25.408351,12.9153 30.352941,43.294118 29.212144,41.282005 27.05291,41.731545 25.294118,41.411765 21.571173,29.001947 24.547545,17.805397 32.352941,10 c 2.184173,-2.1841726 14.02479,-5.601478 18,-5.6470588 C 70.873494,4.1176471 85.499954,12.510295 82,37.058824 Z"
       id="path4866"
       inkscape:connector-curvature="0"
       sodipodi:nodetypes="ccccssc" />
  </g>
  <g
     inkscape:groupmode="layer"
     id="layer9"
     inkscape:label="Features">
    <path
       style="fill:none;fill-rule:evenodd;stroke:#000000;stroke-width:1px;stroke-linecap:butt;stroke-linejoin:miter;stroke-opacity:1"
       d="m 47.882353,32.941176 c -4.764544,-2.28539 -9.374497,1.772534 -11.529412,4.235295"
       id="path4871"
       inkscape:connector-curvature="0" />
    <path
       style="fill:none;fill-rule:evenodd;stroke:#000000;stroke-width:1px;stroke-linecap:butt;stroke-linejoin:miter;stroke-opacity:1"
       d="m 61.882353,35.058824 c 4.789235,1.130402 10.114795,0.142317 13.411765,-1.176471"
       id="path4873"
       inkscape:connector-curvature="0" />
    <path
       style="fill:none;fill-rule:evenodd;stroke:#000000;stroke-width:1px;stroke-linecap:butt;stroke-linejoin:miter;stroke-opacity:1"
       d="m 58.588235,49.176471 c 0.950833,0.655481 0.930787,0.974024 1.294118,1.882353 8.061942,1.977578 2.763109,10.02289 -3.764706,7.411764 C 55.239256,58.419206 54.884176,57.647059 54,57.647059 c -0.567652,0 -2.82265,2.824409 -3.882353,1.764706 -1.591872,-1.591872 -2.116974,-4.51343 1.294118,-4.82353"
       id="path4875"
       inkscape:connector-curvature="0" />
    <path
       style="fill:none;fill-rule:evenodd;stroke:#000000;stroke-width:1px;stroke-linecap:butt;stroke-linejoin:miter;stroke-opacity:1"
       d="m 52.588235,78.941176 c 1.941722,-1.200072 3.892468,-1.647058 6.82353,-1.647058"
       id="path4877"
       inkscape:connector-curvature="0" />
    <ellipse
       style="opacity:1;fill:#000000;fill-opacity:1;stroke:none;stroke-width:0.80000001;stroke-linecap:round;stroke-linejoin:miter;stroke-miterlimit:4;stroke-dasharray:none;stroke-opacity:1"
       id="path4879"
       cx="44.117645"
       cy="42.35294"
       rx="1.5294118"
       ry="2.4705882" />
    <ellipse
       style="opacity:1;fill:#000000;fill-opacity:1;stroke:none;stroke-width:0.80000001;stroke-linecap:round;stroke-linejoin:miter;stroke-miterlimit:4;stroke-dasharray:none;stroke-opacity:1"
       id="path4881"
       cx="67.529411"
       cy="41"
       rx="1.2941177"
       ry="2.4117646" />
    <path
       style="fill:#513d1f;fill-rule:evenodd;stroke:#000000;stroke-width:1px;stroke-linecap:butt;stroke-linejoin:miter;stroke-opacity:1;fill-opacity:1"
       d="m 63.411765,69.529412 c -6.825984,-0.353147 -11.69774,1.603439 -16.941177,3.17647 0.07423,-3.85601 4.777542,-7.077218 8.352941,-5.647058 2.140361,-3.210541 6.923315,-0.242671 8.588236,2.470588 z"
       id="path4883"
       inkscape:connector-curvature="0" />
  </g>
</svg>
